<?xml version="1.0" encoding="utf-8"?>
<!-- Generator: Adobe Illustrator 16.0.0, SVG Export Plug-In . SVG Version: 6.00 Build 0)  -->
<!DOCTYPE svg PUBLIC "-//W3C//DTD SVG 1.1//EN" "http://www.w3.org/Graphics/SVG/1.1/DTD/svg11.dtd">
<svg version="1.1" id="Layer_1" xmlns="http://www.w3.org/2000/svg" xmlns:xlink="http://www.w3.org/1999/xlink" x="0px" y="0px"
	 width="70px" height="60px" viewBox="0 0 1372 729" enable-background="new 0 0 1372 729" xml:space="preserve">
<path fill="#43B046" d="M0,0h1372v729H0V0z"/>
<path fill="#00486F" d="M577.72,27.74c1.09-0.4,2.221,0.39,3.311,0.52c13.51,3.86,27.31,6.75,40.739,10.82
	c0.761,3.27,0.53,6.67,0.61,10.01c4.69-1.2,8.12-4.94,12.58-6.62c2.71,0.26,5.32,1.12,7.94,1.82c12.8,3.6,25.85,6.34,38.55,10.26
	c-0.13,4.12-0.141,8.25,0,12.38c4.71-2.66,8.87-6.23,13.689-8.7c3.62,0.08,7.04,1.5,10.54,2.33
	c68.61,17.75,137.23,35.45,205.84,53.22c-0.25,1.09-0.489,2.19-0.739,3.28c-0.36-0.56-1.08-1.68-1.44-2.24
	c-0.109-0.04-0.32-0.11-0.42-0.15c-71.03-18.4-142.12-36.55-213.08-55.19c-10.67,6.69-20.939,14.01-31.56,20.79
	c-0.67,1.15-0.91,2.47-0.84,3.78c0.27,12.23,0.079,24.47,0.409,36.7c-0.34-0.11-1.029-0.32-1.369-0.43
	c-0.03-0.69-0.07-2.07-0.101-2.76c-2.689-1-5.39-1.98-8.1-2.89c2.489,0.1,5,0.04,7.51-0.03c0.34-11.47-1.021-22.93-0.49-34.42
	c6.141-4.18,12.391-8.21,18.391-12.61c0.31-4.03,0.319-8.07,0.109-12.1l-0.52-0.09C667,51.95,654.55,49.1,642.26,45.7
	c-2.359-0.61-4.72-1.39-7.17-1.41c-2.78,0.94-5.13,2.79-7.64,4.25c-8.3,4.98-16.62,9.96-24.851,15.07
	c-0.199,0.13-0.59,0.37-0.779,0.5c-0.23,13.05,2.22,26.1,1.35,39.13c-0.61-1.17-1.15-2.37-1.7-3.57c-3.34-1.2-6.76-2.71-10.39-2.24
	c3.1-1.67,6.7-0.59,10.03-0.49c0.33-11.06-1.53-22.11-1.301-33.17c5.98-5.96,14.83-8.1,20.82-14.09c0.49-3.03-0.26-6.08-0.82-9.04
	c-3.21-2.17-7.229-2.4-10.85-3.5c-10.31-2.5-20.49-5.61-30.86-7.79c-11.21,5.97-22.39,12.11-33.43,18.43
	c-1.45,0.79-0.729,2.86-0.88,4.2c0.92,11.59,2.54,23.12,3.37,34.73l-1.41-0.42c-0.52-3.38-0.76-6.79-1.07-10.18
	c-0.18-1.77-0.359-3.53-0.569-5.29c-0.88-7.85-1.7-15.7-2.351-23.56C553.92,41.08,565.64,34.07,577.72,27.74z"/>
<path fill="#0099CE" d="M544.67,47.78c11.04-6.32,22.22-12.46,33.43-18.43c10.37,2.18,20.551,5.29,30.86,7.79
	c3.62,1.1,7.64,1.33,10.85,3.5c-1.25,0.58-2.5,1.16-3.729,1.75c-7.86,3.82-15.12,8.73-22.73,13c-2.939,1.44-5.67,4.8-9.229,3.45
	C570.99,55.07,557.71,51.84,544.67,47.78z"/>
<path fill="#005B7B" d="M616.08,42.39c1.229-0.59,2.479-1.17,3.729-1.75c0.561,2.96,1.311,6.01,0.82,9.04
	c-5.99,5.99-14.84,8.13-20.82,14.09c-0.229,11.06,1.631,22.11,1.301,33.17c-3.33-0.1-6.931-1.18-10.03,0.49l-0.92,0.42
	c-0.9-11.74-1.95-23.48-2.61-35.23c-0.439-2.34,2.22-3.25,3.73-4.37c7.2-4.08,14.14-8.6,21.399-12.58
	C614.1,44.92,615.07,43.61,616.08,42.39z"/>
<path fill="#006386" d="M593.35,55.39c7.61-4.27,14.87-9.18,22.73-13c-1.01,1.22-1.98,2.53-3.4,3.28
	c-7.26,3.98-14.199,8.5-21.399,12.58c-1.511,1.12-4.17,2.03-3.73,4.37c0.66,11.75,1.71,23.49,2.61,35.23l-0.55,1.11
	c-14.2-3.92-28.221-8.45-42.45-12.25c-0.83-11.61-2.45-23.14-3.37-34.73c0.15-1.34-0.57-3.41,0.88-4.2
	c13.04,4.06,26.32,7.29,39.45,11.06C587.68,60.19,590.41,56.83,593.35,55.39z"/>
<path fill="#0099CE" d="M627.45,48.54c2.51-1.46,4.859-3.31,7.64-4.25c2.45,0.02,4.811,0.8,7.17,1.41
	c12.29,3.4,24.74,6.25,37.021,9.72c-10.511,6.73-20.98,13.55-31.351,20.49c-11.42-2.4-22.529-6.05-33.819-8.94
	c-3.9-0.93-7.71-2.13-11.511-3.36C610.83,58.5,619.15,53.52,627.45,48.54z"/>
<path fill="#005B7B" d="M679.28,55.42l0.52,0.09c0.21,4.03,0.2,8.07-0.109,12.1c-6,4.4-12.25,8.43-18.391,12.61
	c-0.53,11.49,0.83,22.95,0.49,34.42c-2.51,0.07-5.021,0.13-7.51,0.03c-1.75-0.3-3.44,0.09-5.04,0.76
	c-0.32-6.93,0.09-13.88-0.71-20.79c-0.67-6.22-0.23-12.49-0.601-18.73C658.3,68.97,668.77,62.15,679.28,55.42z"/>
<path fill="#4B413B" d="M413.77,71.87c24.61-11.51,52.25-15.36,79.24-14.29c17.641,0.95,35.681,4.19,51.101,13.24
	c0.21,1.76,0.39,3.52,0.569,5.29c-0.34-1.41-0.41-3.14-1.85-3.91c-5.05-3.51-10.89-5.65-16.68-7.59c-18.771-6-38.73-5.9-58.2-5
	c-18.11,1.85-36.3,5.55-52.811,13.44c-8.439,4.39-17.239,9.61-21.81,18.33c-2.14,3.69-2.08,8.07-1.57,12.17
	c-1.55,0.85-3.1,1.7-4.66,2.54c-0.26-1.15-0.51-2.31-0.76-3.46c2.05-3.3,3.8-6.77,4.7-10.57C395.53,82.56,404.79,76.65,413.77,71.87
	z"/>
<path fill="#EB7E1E" d="M415.14,73.05c16.511-7.89,34.7-11.59,52.811-13.44c19.47-0.9,39.43-1,58.2,5
	c5.79,1.94,11.63,4.08,16.68,7.59c1.439,0.77,1.51,2.5,1.85,3.91c0.311,3.39,0.551,6.8,1.07,10.18l1.41,0.42
	c14.229,3.8,28.25,8.33,42.45,12.25l0.55-1.11l0.92-0.42c3.63-0.47,7.05,1.04,10.39,2.24c0.55,1.2,1.09,2.4,1.7,3.57
	c14.49,3.57,28.65,8.37,43.04,12.3c1.021,0.29,2.03,0.26,3.03-0.11c1.6-0.67,3.29-1.06,5.04-0.76c2.71,0.91,5.41,1.89,8.1,2.89
	c0.03,0.69,0.07,2.07,0.101,2.76c0.34,0.11,1.029,0.32,1.369,0.43c71.471,20.91,142.931,41.86,214.4,62.76
	c0.15-0.76,0.44-2.27,0.58-3.02c4.85,0.93,9.53,2.52,14.2,4.12c0.239,0.06,0.72,0.18,0.95,0.24c1.77,0.46,3.579,0.78,5.409,1.05
	c0.311,1.41,0.61,2.82,0.95,4.24c0.3,0.07,0.92,0.22,1.23,0.29c21.58,6.16,43.119,12.5,64.63,18.93c0.189-0.52,0.55-1.55,0.739-2.07
	c2.53-0.22,5,0.43,7.41,1.19c4.971,1.55,9.971,3.02,14.98,4.45c-0.42,1.9-0.86,3.8-0.99,5.75c1.3,0.83,2.88,0.99,4.35,1.41
	c28.25,8.1,56.4,16.55,84.61,24.79c0.57-1.76,1.15-3.52,1.8-5.26l0.561-0.46c49.07,14.5,98.27,28.58,147.35,43.06
	c-1.21,5.99-3.79,11.56-5.71,17.32c-2.45,7.24-4.87,14.5-7.77,21.56c-40.13-12.33-80.17-24.95-120.37-37.02
	c-1.271,2.2-1.96,4.93-3.95,6.59c-184.36-57.55-368.8-114.86-553.18-172.33c-3.25-1.24-6.57-2.47-10.101-2.29
	c-2.319,1.96-5.279,2.74-8.12,3.6c-12.18,3.98-24.76,6.41-37.43,8.1c-10.46,0.59-20.95,1.22-31.42,0.44
	c-2.66-0.1-5.58-0.87-7.94,0.75c-39.399,22.68-78.839,45.29-118.26,67.93c-2.77,1.6-5.48,3.35-8.49,4.5
	c-2.31-0.74-4.57-2.35-7.07-2.07c-3.68,1.29-6.75,3.84-10.23,5.54c-1.23-3.9-2.4-7.82-3.57-11.75c-7.58-3.16-15.21-6.19-22.87-9.15
	c-4.81-2.11-9.76-3.9-14.5-6.18c18.86-9.68,37.43-19.9,56.32-29.53c6.76-4.08,14.1-7.09,20.89-11.12c2.81-1.66,5.8-2.97,8.68-4.49
	l0.79-0.46c-0.01-0.82-0.03-2.47-0.04-3.29c1.42-0.83,2.84-1.66,4.3-2.42c2.24-0.05,4.47,0.14,6.71,0.02
	c11.22-6.14,22.59-11.98,33.9-17.97c-0.12-0.6-0.36-1.8-0.48-2.41c1.56-0.84,3.11-1.69,4.66-2.54c-0.51-4.1-0.57-8.48,1.57-12.17
	C397.9,82.66,406.7,77.44,415.14,73.05z"/>
<path fill="#00486F" d="M333.4,68.39c6.04-2.3,11.48-6.02,17.64-8.02c9.17,2.55,18.3,5.48,27.35,8.48c-0.47,0.21-1.4,0.64-1.87,0.85
	c-7.72-2.37-15.42-4.82-23.13-7.21c-3.83-1.15-7.18,1.88-10.52,3.25c-8.6,3.91-16.99,8.27-25.74,11.84
	c-2.03,2.71,0.56,6.11,1.3,8.89c4.75,1.64,9.56,3.13,14.26,4.92c3.71,11.57,5.75,23.6,9.4,35.19c1.62-0.06,3.25-0.11,4.88-0.13
	c-1.46,0.76-2.88,1.59-4.3,2.42c0.01,0.82,0.03,2.47,0.04,3.29l-0.79,0.46c-4.2-11.92-6.6-24.38-9.81-36.59
	c-0.39-1.28-0.89-2.53-1.51-3.71c-7.97-2.7-15.96-5.32-23.93-8c-2.39-1.1-4.66,0.62-6.77,1.55c-34.5,16.29-69.13,32.31-103.56,48.76
	c-0.3,0.15-0.91,0.47-1.22,0.63c1.55,4.61,3.15,9.21,4.92,13.75c0.95,3.46,5.71,3.61,6.67,7.08c4.04,11.7,8.56,23.23,12.74,34.89
	c5.71-2.58,11.13-5.75,16.75-8.53c4.17-2.2,8.11-4.89,12.51-6.64c2.59-1.05,5.02,1.01,7.32,1.95c4.74,2.28,9.69,4.07,14.5,6.18
	l-2.05,0.5c-6.16-2.28-12.18-4.88-18.3-7.26c-8.85,4.34-17.37,9.31-26.23,13.64c-9.79,5.52-20.05,10.14-29.76,15.8
	c-0.16,0.11-0.47,0.33-0.63,0.45c1.21,5.16,3.89,9.81,5.29,14.91c1.01,4.22,3.63,8.04,3.37,12.53c-3.43-7.7-5.78-15.84-9.56-23.39
	c-0.66-1.58-1.24-3.18-1.8-4.79c8.56-5.36,17.87-9.3,26.63-14.27c-2.73-8.8-6.61-17.19-9.46-25.95c-1.57-4.04-2.36-8.48-5.01-12.01
	c-7.23-2.84-14.45-5.69-21.62-8.65c-2.16-0.83-4.61-1.88-6.88-0.77c-19.64,9.31-39.31,18.59-59.05,27.7l-0.57,0.19
	c7.78,18.83,16.46,37.3,24.4,56.07c0.58,1.72,1.74,3.13,3.38,3.93c-0.94,0.5-1.88,0.98-2.82,1.47
	c-7.63-17.88-15.7-35.58-23.47-53.41c-1.19-2.98-3.21-5.76-3.22-9.08c17.37-7.53,34.24-16.17,51.54-23.87
	c3.59-1.63,6.95-3.77,10.67-5.13c1.23-0.57,2.52,0.04,3.69,0.44c6.61,2.55,13.09,5.43,19.75,7.86c-1.62-5.6-4.08-10.9-5.72-16.49
	c36.46-17.38,73.17-34.24,109.6-51.67c0.96-0.54,1.96-0.61,3-0.21c3.46,1.02,6.8,2.42,10.25,3.47c-0.61-2.87-1.25-5.73-1.79-8.62
	C320.64,74.48,327.02,71.45,333.4,68.39z"/>
<path fill="#0099CE" d="M664.28,80.27c10.62-6.78,20.89-14.1,31.56-20.79c70.96,18.64,142.05,36.79,213.08,55.19
	c-7.66,9.27-16.99,16.97-24.88,26.02c-65.43-17.67-130.74-35.74-196.13-53.52C680.05,84.79,671.94,83.24,664.28,80.27z"/>
<path fill="#0099CE" d="M342.87,65.74c3.34-1.37,6.69-4.4,10.52-3.25c7.71,2.39,15.41,4.84,23.13,7.21c-4.1,2.2-8.19,4.41-12.29,6.6
	c-7.72,2.57-14.74,6.77-22.13,10.13c-8.28-3.05-17.07-4.86-24.97-8.85C325.88,74.01,334.27,69.65,342.87,65.74z"/>
<path fill="#006386" d="M601.82,64.11c0.189-0.13,0.58-0.37,0.779-0.5c3.801,1.23,7.61,2.43,11.511,3.36
	c11.29,2.89,22.399,6.54,33.819,8.94c0.37,6.24-0.069,12.51,0.601,18.73c0.8,6.91,0.39,13.86,0.71,20.79c-1,0.37-2.01,0.4-3.03,0.11
	c-14.39-3.93-28.55-8.73-43.04-12.3C604.04,90.21,601.59,77.16,601.82,64.11z"/>
<path fill="#005B7B" d="M376.52,69.7c0.47-0.21,1.4-0.64,1.87-0.85l0.51-0.23c2.45,11.34,5,22.66,7.44,34.01
	c0.25,1.15,0.5,2.31,0.76,3.46c0.12,0.61,0.36,1.81,0.48,2.41c-11.31,5.99-22.68,11.83-33.9,17.97
	c-4.03-10.17-5.69-21.06-8.54-31.59c-0.4-2.47-1.66-5.12-0.92-7.59c6.45-4,14.15-6.02,20.01-10.99
	C368.33,74.11,372.42,71.9,376.52,69.7z"/>
<path fill="#006386" d="M318.43,86.47c-0.74-2.78-3.33-6.18-1.3-8.89c7.9,3.99,16.69,5.8,24.97,8.85
	c7.39-3.36,14.41-7.56,22.13-10.13c-5.86,4.97-13.56,6.99-20.01,10.99c-0.74,2.47,0.52,5.12,0.92,7.59
	c2.85,10.53,4.51,21.42,8.54,31.59c-2.24,0.12-4.47-0.07-6.71-0.02c-1.63,0.02-3.26,0.07-4.88,0.13
	c-3.65-11.59-5.69-23.62-9.4-35.19C327.99,89.6,323.18,88.11,318.43,86.47z"/>
<path fill="#006386" d="M663.44,84.05c-0.07-1.31,0.17-2.63,0.84-3.78c7.66,2.97,15.77,4.52,23.63,6.9
	c65.39,17.78,130.7,35.85,196.13,53.52c-0.04,9.34-2.43,18.42-3.56,27.65c-0.53,4.05-0.94,8.12-1.65,12.15
	c-0.14,0.75-0.43,2.26-0.58,3.02c-71.47-20.9-142.93-41.85-214.4-62.76C663.52,108.52,663.71,96.28,663.44,84.05z"/>
<path fill="#0099CE" d="M299.9,85.87c2.11-0.93,4.38-2.65,6.77-1.55c7.97,2.68,15.96,5.3,23.93,8
	c-25.37,12.3-50.7,24.68-75.98,37.16c-10.62,4.87-21.12,10.02-31.45,15.48c-3.68-0.61-7.14-2.02-10.54-3.51
	c-5.39-2.37-11.21-3.76-16.29-6.82C230.77,118.18,265.4,102.16,299.9,85.87z"/>
<path fill="#005B7B" d="M330.6,92.32c0.62,1.18,1.12,2.43,1.51,3.71c3.21,12.21,5.61,24.67,9.81,36.59
	c-2.88,1.52-5.87,2.83-8.68,4.49c-6.79,4.03-14.13,7.04-20.89,11.12c-18.89,9.63-37.46,19.85-56.32,29.53
	c-2.3-0.94-4.73-3-7.32-1.95c-4.4,1.75-8.34,4.44-12.51,6.64c-3.11-6.23-4.6-13.06-7.17-19.49c-2.03-5.97-4.68-11.78-5.86-18
	c10.33-5.46,20.83-10.61,31.45-15.48C279.9,117,305.23,104.62,330.6,92.32z"/>
<path fill="#005B7B" d="M908.92,114.67c0.1,0.04,0.311,0.11,0.42,0.15c0.36,0.56,1.08,1.68,1.44,2.24
	c-2.471,17.72-6.05,35.3-8.53,53.03c-0.37,6.3-7.6,8.77-9.22,14.52c-4.67-1.6-9.351-3.19-14.2-4.12c0.71-4.03,1.12-8.1,1.65-12.15
	c1.13-9.23,3.52-18.31,3.56-27.65C891.93,131.64,901.26,123.94,908.92,114.67z"/>
<path fill="#00486F" d="M517.81,119.65c2.841-0.86,5.801-1.64,8.12-3.6c3.53-0.18,6.851,1.05,10.101,2.29
	c184.38,57.47,368.819,114.78,553.18,172.33c1.99-1.66,2.68-4.39,3.95-6.59c40.2,12.07,80.24,24.689,120.37,37.02
	c0.59,0.19,1.21,0.381,1.84,0.561c8.27,2.39,16.43,5.149,24.7,7.56l-1.21,1.17c-48.351-14.659-96.521-29.95-144.9-44.51
	c-22.57,42.71-45.03,85.47-67.34,128.32c-6.34,15.28-9.81,31.64-16.49,46.79c-0.02-0.76-0.02-1.51,0.01-2.25
	c4.261-12.41,8.171-24.92,12.2-37.4c2.471-8.13,6.811-15.51,10.771-22.97c3.02-5.271,5.479-10.83,8.359-16.17
	c7.61-13.76,14.57-27.87,22.08-41.7c0.2-0.39,0.601-1.19,0.8-1.58c4.29-8.479,8.971-16.77,13.17-25.3
	c4.16-7.32,7.83-14.9,11.75-22.34c-11.159-4.35-22.84-7.2-34.18-11.02c-174.13-54.2-348.25-108.45-522.38-162.66
	c-1.85-0.79-4.11-0.44-4.04,1.96c-0.58-0.86-0.85-2.69-2.28-2.21C523.54,118.18,520.68,118.93,517.81,119.65z"/>
<path fill="#884911" d="M526.39,117.35c1.431-0.48,1.7,1.35,2.28,2.21c-0.12,1.15-0.22,2.29-0.3,3.44
	c-16.44,6.96-34.04,10.85-51.79,12.36c-10.85,0.5-21.73,0.4-32.58-0.2c0.29-1.89,0.59-3.78,0.87-5.68
	c10.35-0.67,20.74,0.24,31.1-0.37c1.55-0.12,2.95-0.87,4.41-1.36c12.67-1.69,25.25-4.12,37.43-8.1
	C520.68,118.93,523.54,118.18,526.39,117.35z"/>
<path fill="#985213" d="M528.67,119.56c-0.07-2.4,2.19-2.75,4.04-1.96c174.13,54.21,348.25,108.46,522.38,162.66
	c11.34,3.82,23.021,6.67,34.18,11.02c-3.92,7.44-7.59,15.02-11.75,22.34c-59.13-19.35-118.43-38.18-177.619-57.35
	c-109.65-35.28-219.271-70.62-328.91-105.92c-8.601-3.07-17.54-5.15-25.99-8.63c-1.14-1.22-2.16-2.52-3.28-3.74
	c-1.2-0.46-2.399-0.87-3.62-1.22c-0.35,0.16-1.04,0.49-1.38,0.65c0.99-2.61,1.57-5.45,0.261-8.05c-0.4,0.23-1.2,0.71-1.591,0.95
	c-0.42,0.03-1.25,0.11-1.67,0.14c0.34-2.09,0.62-4.19,0.891-6.29c-0.681,0.06-1.351,0.13-2.011,0.21
	c-1.399-0.51-2.8-0.99-4.229-1.37C528.45,121.85,528.55,120.71,528.67,119.56z"/>
<path fill="#00486F" d="M921.31,132.37c3.91-4.57,8.101-8.91,12.511-13.01c8.609,2.57,17.35,4.71,26.09,6.81l-0.92,1.46
	c-8.33-1.93-16.5-4.54-24.86-6.27c-3.7,2.5-6.07,6.46-9.25,9.53c-5.34,5.38-10.439,10.98-15.6,16.53
	c-1.9,4.27-2.101,9.02-3.05,13.55c-1.62,9.81-3.521,19.58-4.66,29.46c-0.311-0.07-0.931-0.22-1.23-0.29
	c-0.34-1.42-0.64-2.83-0.95-4.24c-1.83-0.27-3.64-0.59-5.409-1.05c2.159-0.86,4.359,0.13,6.449,0.68c2.42-12.08,4-24.31,6.221-36.43
	c0.08-1.39,1.1-2.42,1.949-3.42C912.71,141.12,917.25,136.98,921.31,132.37z"/>
<path fill="#0099CE" d="M924.88,130.89c3.18-3.07,5.55-7.03,9.25-9.53c8.36,1.73,16.53,4.34,24.86,6.27l0.16,0.04
	c12.789,3.63,25.76,6.64,38.56,10.26c-4.271,6.12-9.51,11.46-13.8,17.55c-3.04,3.13-5.45,6.83-8.57,9.87
	c-1.59,0.3-3.17-0.49-4.689-0.81c-20.381-5.97-41.08-10.87-61.37-17.12C914.44,141.87,919.54,136.27,924.88,130.89z"/>
<path fill="#EB7E1E" d="M476.58,135.36c17.75-1.51,35.35-5.4,51.79-12.36c1.43,0.38,2.83,0.86,4.229,1.37
	c-28.409,12.31-60.04,15.52-90.68,12.8c0.69-0.68,1.38-1.35,2.08-2.01C454.85,135.76,465.73,135.86,476.58,135.36z"/>
<path fill="#8C4B12" d="M532.6,124.37c0.66-0.08,1.33-0.15,2.011-0.21c-0.271,2.1-0.551,4.2-0.891,6.29
	c-13.75,5.5-28.029,9.93-42.77,11.75c-7.891,1.51-15.931,1.35-23.9,2.1c-8.71,0.26-17.41-0.85-26.09-1.35
	c-0.88,0.45-1.68,1.01-2.39,1.69c20.439,2.76,41.3,1.21,61.529-2.56c12.051-2.88,24.271-5.99,35.29-11.77
	c0.391-0.24,1.19-0.72,1.591-0.95c1.31,2.6,0.729,5.44-0.261,8.05c-16.47,8.13-34.58,12.36-52.72,14.63
	c-13.59,1.27-27.3,1.93-40.89,0.22c-2.12-0.33-4.271-0.57-6.38-0.06c8.859,2.49,18.189,2.07,27.31,2.47
	c26.57-0.56,53.68-4.76,77.68-16.69c1.12,1.22,2.141,2.52,3.28,3.74c-1.28-0.07-2.49,0.15-3.65,0.66
	c-27.43,12.93-58.31,17.25-88.43,15.95c-5.7-0.01-11.28-1.41-16.95-1.64c-10.93,5.91-21.439,12.63-32.16,18.92
	c-20.54,12.43-41.339,24.42-61.79,37c-9.28-3.66-18.55-7.37-27.75-11.24c3.01-1.15,5.72-2.9,8.49-4.5
	c39.42-22.64,78.86-45.25,118.26-67.93c2.36-1.62,5.28-0.85,7.94-0.75c10.47,0.78,20.96,0.15,31.42-0.44
	c-1.46,0.49-2.86,1.24-4.41,1.36c-10.359,0.61-20.75-0.3-31.1,0.37c-0.28,1.9-0.58,3.79-0.87,5.68c-0.7,0.66-1.39,1.33-2.08,2.01
	C472.56,139.89,504.19,136.68,532.6,124.37z"/>
<path fill="#005B7B" d="M959.15,127.67l1.46-1.15c13.149,3.05,26.1,6.94,39.26,9.95c-3.72,18.97-8.91,37.67-13.07,56.56
	c-0.8,6.03-5.62,10.11-8.81,14.92c-3.42-1.07-6.9-2.05-10.48-2.38c2.561-11.76,5.53-23.42,7.851-35.23
	c0.729-6.08,7.25-8.97,8.55-14.86c4.29-6.09,9.529-11.43,13.8-17.55C984.91,134.31,971.939,131.3,959.15,127.67z"/>
<path fill="#EB7E1E" d="M533.72,130.45c0.42-0.03,1.25-0.11,1.67-0.14c-11.02,5.78-23.239,8.89-35.29,11.77
	c-20.229,3.77-41.09,5.32-61.529,2.56c0.71-0.68,1.51-1.24,2.39-1.69c8.68,0.5,17.38,1.61,26.09,1.35c7.97-0.75,16.01-0.59,23.9-2.1
	C505.69,140.38,519.97,135.95,533.72,130.45z"/>
<path fill="#006386" d="M195.12,135.26c0.31-0.16,0.92-0.48,1.22-0.63c5.08,3.06,10.9,4.45,16.29,6.82c3.4,1.49,6.86,2.9,10.54,3.51
	c1.18,6.22,3.83,12.03,5.86,18c2.57,6.43,4.06,13.26,7.17,19.49c-5.62,2.78-11.04,5.95-16.75,8.53
	c-4.18-11.66-8.7-23.19-12.74-34.89c-0.96-3.47-5.72-3.62-6.67-7.08C198.27,144.47,196.67,139.87,195.12,135.26z"/>
<path fill="#EB7E1E" d="M536.72,137.41c0.34-0.16,1.03-0.49,1.38-0.65c1.221,0.35,2.42,0.76,3.62,1.22
	c-24,11.93-51.109,16.13-77.68,16.69c-9.12-0.4-18.45,0.02-27.31-2.47c2.109-0.51,4.26-0.27,6.38,0.06
	c13.59,1.71,27.3,1.05,40.89-0.22C502.14,149.77,520.25,145.54,536.72,137.41z"/>
<path fill="#43B046" d="M541.35,142.38c1.16-0.51,2.37-0.73,3.65-0.66c8.45,3.48,17.39,5.56,25.99,8.63
	c109.64,35.3,219.26,70.64,328.91,105.92c59.189,19.17,118.489,38,177.619,57.35c-4.199,8.53-8.88,16.82-13.17,25.3
	c-1.609,0.07-3.859-1.42-4.91,0.37c-0.939,1.13-1.699,2.38-2.479,3.6c-2.62-0.8-5.24-1.56-7.87-2.279
	c-0.96,1.6-1.91,3.199-2.859,4.8c-1.961-0.47-3.91-0.92-5.86-1.36c-6.39,11.95-13.04,23.76-19.56,35.641
	c-2.351,3.84-4.25,7.949-5.471,12.29c0.391,0.14,1.15,0.409,1.54,0.55c5.4,1.97,10.771,4,16.23,5.84
	c-3.96,7.46-8.3,14.84-10.771,22.97c-4.029,12.48-7.939,24.99-12.2,37.4c-8.01-0.021-15.989-1.2-23.989-0.94
	c-8.53,0.9-17.29,0.91-25.48,3.74c-42.42-16.88-84.689-34.14-127.1-51.05c-3.12-1.221-6.13-2.84-9.45-3.431
	c-0.95,0.721-1.73,1.62-2.45,2.561c-9.1,12.22-18.4,24.31-27.55,36.5c0.729-16.64,3.46-33.12,4.8-49.72
	c-9.9-3.83-19.71-7.891-29.59-11.74c-1.8-0.72-3.5-1.65-5.19-2.561c3.311-3.119,5.11-7.43,8.341-10.63
	c2.739-3.109,6.34-6.17,6.21-10.72c-0.96-0.47-1.91-0.92-2.86-1.35c-12.59-5.15-25.33-9.931-38-14.881
	c-3.6,3.48-6.97,7.2-10.15,11.051c-1.52,1.449-1.1,3.63-1.319,5.51c0.54,0.21,1.63,0.64,2.17,0.85c2.319,0.91,4.63,1.851,6.95,2.801
	c-0.131,1.989-0.261,3.989-0.381,5.989c-47.77-18.97-95.35-38.46-143.119-57.439c-5.681,5.12-11.261,10.399-17.4,14.96
	c-1.25-7.601-0.95-15.54-2.8-22.97c-20.29-8.52-40.811-16.61-61.221-24.86c-4.54-1.59-8.75-4.18-13.569-4.83
	c-3.931-2.59-8.431-4.35-12.96-5.5c-5.33,2.57-9.471,7.06-14.55,10.08c-1.12-5.84-2.08-11.71-3.19-17.54
	c-0.55-0.22-1.65-0.65-2.21-0.86c2.84-2.53,5.97-4.7,9.27-6.58c1.23,3.63,1.78,7.43,2.33,11.21c1.431,0.44,2.86,0.87,4.301,1.32
	c2.539-1.93,5.17-3.74,7.909-5.39c-0.31-2.59-0.739-5.17-1.279-7.72c2.26-1.96,4.63-3.78,7.069-5.5c-0.38-1.44-0.739-2.89-1.18-4.31
	c-0.31-0.15-0.94-0.45-1.25-0.61c-6.67-2.9-13.57-5.23-20.29-8.01c-2.95-1.13-5.84-2.55-8.979-3.08
	c-4.131,2.04-7.54,5.29-11.49,7.65c-2.311,1.32-0.71,3.96-0.54,5.96c2.56,0.9,5.17,1.69,7.56,2.99c1.311,1.75,1.15,4.15,1.65,6.21
	c0.13,0.97,0.39,2.92,0.52,3.89c-21.35-8.49-42.689-16.98-63.959-25.67c-2.89-1.19-5.82-2.26-8.77-3.28
	c-4.1,2.37-8.05,4.98-12.1,7.44c-1.41-4.48-2.13-9.15-3.68-13.58c-1.77-1.38-3.96-2.07-6.01-2.92c-7.76-2.92-15.39-6.21-23.14-9.17
	c20.45-12.58,41.25-24.57,61.79-37c10.721-6.29,21.23-13.01,32.16-18.92c5.67,0.23,11.25,1.63,16.95,1.64
	C483.04,159.63,513.92,155.31,541.35,142.38z"/>
<path fill="#0099CE" d="M174.52,144.68c2.27-1.11,4.72-0.06,6.88,0.77c7.17,2.96,14.39,5.81,21.62,8.65
	c-19.19,10.66-39.52,19.07-58.89,29.39c-2.23,0.32-4.47-0.08-6.46-1.11c-7.34-3.46-14.94-6.35-22.2-10
	C135.21,163.27,154.88,153.99,174.52,144.68z"/>
<path fill="#00486F" d="M1022.27,145.22c15.37,3.45,30.541,7.88,45.841,11.65c1.37,0.56,3.319,0.35,4.359,1.54l0.931,1.41
	c-12.271-2.98-24.431-6.43-36.7-9.44c-4.57-1.05-9-2.8-13.681-3.31c-1.05,0.58-1.77,1.56-2.5,2.46
	c-6.31,8.44-12.539,16.95-19.18,25.13c-2.67,5.02-2.97,10.84-4.6,16.22c-2.4,8.52-3.551,17.45-7.101,25.6
	c0.181-1.69,0.351-3.38,0.591-5.06c1.8-8.73,4.319-17.31,6.22-26.02c1.189-4.47,1.63-9.42,4.87-13
	C1008.439,163.46,1014.84,153.89,1022.27,145.22z"/>
<path fill="#006386" d="M906.23,160.97c0.949-4.53,1.149-9.28,3.05-13.55c20.29,6.25,40.989,11.15,61.37,17.12
	c1.52,0.32,3.1,1.11,4.689,0.81c3.12-3.04,5.53-6.74,8.57-9.87c-1.3,5.89-7.82,8.78-8.55,14.86c-2.32,11.81-5.29,23.47-7.851,35.23
	c-0.14,0.43-0.43,1.29-0.57,1.72c-0.189,0.52-0.55,1.55-0.739,2.07c-21.511-6.43-43.05-12.77-64.63-18.93
	C902.71,180.55,904.61,170.78,906.23,160.97z"/>
<path fill="#0099CE" d="M1020.52,149.53c0.73-0.9,1.45-1.88,2.5-2.46c4.681,0.51,9.11,2.26,13.681,3.31
	c12.27,3.01,24.43,6.46,36.7,9.44c11.779,3.34,23.67,6.33,35.52,9.42c-5.06,9.07-10.57,17.89-15.81,26.86
	c-0.65,1.19-1.11,2.47-1.48,3.77c-4.33-0.35-8.49-1.61-12.63-2.85c-23.32-6.39-46.62-12.84-69.95-19.18
	c-2.649-0.83-5.77-0.97-7.71-3.18C1007.98,166.48,1014.21,157.97,1020.52,149.53z"/>
<path fill="#005B7B" d="M203.02,154.1c2.65,3.53,3.44,7.97,5.01,12.01c2.85,8.76,6.73,17.15,9.46,25.95
	c-8.76,4.97-18.07,8.91-26.63,14.27c0.56,1.61,1.14,3.21,1.8,4.79c-10.36,5.75-20.98,11.03-31.32,16.82
	c-5.84-13.33-11.59-26.69-17.19-40.12c-0.68-1.38-0.21-2.9-0.02-4.33C163.5,173.17,183.83,164.76,203.02,154.1z"/>
<path fill="#005B7B" d="M1072.47,158.41c3.7,0.22,7.23,1.44,10.8,2.36c9.2,2.5,18.461,4.76,27.69,7.17
	c-3.12,12.13-7.87,23.81-11.37,35.84c-2.49,7.76-5.189,15.44-7.62,23.21c-1.34,4.46-4.21,8.19-6.31,12.29
	c-1.54-0.41-3.08-0.79-4.63-1.08c-0.341,0.24-1.021,0.72-1.37,0.96l-0.561,0.46c3.29-8.76,5.7-17.8,8.851-26.61
	c1.43-4.32,2.87-8.65,3.68-13.14c0.37-1.3,0.83-2.58,1.48-3.77c5.239-8.97,10.75-17.79,15.81-26.86
	c-11.85-3.09-23.74-6.08-35.52-9.42L1072.47,158.41z"/>
<path fill="#006386" d="M114.9,172.57l0.57-0.19c7.26,3.65,14.86,6.54,22.2,10c1.99,1.03,4.23,1.43,6.46,1.11
	c-0.19,1.43-0.66,2.95,0.02,4.33c5.6,13.43,11.35,26.79,17.19,40.12c-1.33-0.18-2.58-0.68-3.74-1.32c-0.39-0.23-1.18-0.69-1.57-0.92
	c-4.54,2.11-9,4.38-13.35,6.87c-1.64-0.8-2.8-2.21-3.38-3.93C131.36,209.87,122.68,191.4,114.9,172.57z"/>
<path fill="#006386" d="M996.74,190.88c1.63-5.38,1.93-11.2,4.6-16.22c1.94,2.21,5.061,2.35,7.71,3.18
	c23.33,6.34,46.63,12.79,69.95,19.18c4.14,1.24,8.3,2.5,12.63,2.85c-0.81,4.49-2.25,8.82-3.68,13.14
	c-3.15,8.81-5.561,17.85-8.851,26.61c-0.649,1.74-1.229,3.5-1.8,5.26c-28.21-8.24-56.36-16.69-84.61-24.79
	c-1.199-0.51-2.39-1.08-3.539-1.63c0.119-0.49,0.369-1.48,0.489-1.98C993.189,208.33,994.34,199.4,996.74,190.88z"/>
<path fill="#0099CE" d="M223.95,190.82c8.86-4.33,17.38-9.3,26.23-13.64c6.12,2.38,12.14,4.98,18.3,7.26
	c7.3,3.55,15.07,5.98,22.39,9.48c-11.47,6.71-23.29,12.81-34.69,19.65c-6.63,3.04-12.85,6.88-19.22,10.41
	c-1.91,1.36-4.05-0.33-5.92-0.92c-12.23-5.6-24.82-10.42-36.85-16.44C203.9,200.96,214.16,196.34,223.95,190.82z"/>
<path fill="#005B7B" d="M268.48,184.44l2.05-0.5c7.66,2.96,15.29,5.99,22.87,9.15c1.17,3.93,2.34,7.85,3.57,11.75
	c3.48-1.7,6.55-4.25,10.23-5.54c2.5-0.28,4.76,1.33,7.07,2.07c9.2,3.87,18.47,7.58,27.75,11.24c7.75,2.96,15.38,6.25,23.14,9.17
	c2.05,0.85,4.24,1.54,6.01,2.92c1.55,4.43,2.27,9.1,3.68,13.58c4.05-2.46,8-5.07,12.1-7.44c2.95,1.02,5.88,2.09,8.77,3.28
	c21.27,8.69,42.61,17.18,63.959,25.67c-0.13-0.97-0.39-2.92-0.52-3.89c0.2,2.95,1.96,5.27,4.92,5.86c0.56,0.21,1.66,0.64,2.21,0.86
	c1.11,5.83,2.07,11.7,3.19,17.54c5.079-3.02,9.22-7.51,14.55-10.08c4.529,1.15,9.029,2.91,12.96,5.5c-4.69,0.5-8.36-3.27-12.9-3.57
	c-1.58,0.69-2.96,1.74-4.33,2.76c-15.96,12-32.2,23.63-48.09,35.72l-0.26,0.229c1.899,11.59,4.93,22.96,7.47,34.41
	c1,3.86,1.43,7.82,1.55,11.8l-1.12-0.51c-1.109-4.2-1.76-8.51-2.81-12.729c-1.82-0.761-3.53-2.12-5.58-2.091
	c-3.35,1.71-6.03,4.431-8.77,6.95c-0.57-7.569-2.92-14.83-4.57-22.189c-1.73-7.721-3.771-15.36-5.37-23.101
	c1.72-1.78,3.28-3.69,4.76-5.67c15.561-11.54,31.42-22.68,47.12-34.02c-25.56-10.51-51.229-20.74-76.85-31.11
	c-18.12,11.71-36.4,23.18-54.5,34.92l-0.36,0.28c3.58,12.7,7.34,25.36,11.21,37.97c0.51,1.78-0.15,3.601-0.23,5.4
	c-1.35-3.851-2.42-7.8-3.77-11.65c-0.64-0.04-1.92-0.12-2.56-0.16c-2.92,1.94-5.77,3.97-8.72,5.86c-1.72-9.12-5.23-17.77-7.64-26.71
	c-1.69-6.5-4.48-12.72-5.47-19.39c17.78-11.46,35.91-22.38,53.79-33.69c-17.53-7.25-35.14-14.31-52.74-21.38
	c-2.72-1.05-5.35-2.6-8.3-2.85c-3.41,0.78-6.18,3.11-9.22,4.73c-15.55,8.74-30.96,17.74-46.58,26.37c1.68,8.25,5.44,15.88,7.89,23.9
	c2.15,7.25,5.55,14.07,7.36,21.43l-1.71-0.59c-1.96-4.02-3.18-8.35-4.69-12.54c-3,1.59-5.87,3.42-8.64,5.37
	c-3.33-7.62-5.69-15.6-8.68-23.36c-2.28-6.82-5.14-13.44-7.39-20.27c6.27-4.76,14.38-6.79,19.89-12.53
	c11.4-6.84,23.22-12.94,34.69-19.65C283.55,190.42,275.78,187.99,268.48,184.44z"/>
<path fill="#0099CE" d="M298.73,205.79c3.04-1.62,5.81-3.95,9.22-4.73c2.95,0.25,5.58,1.8,8.3,2.85
	c17.6,7.07,35.21,14.13,52.74,21.38c-17.88,11.31-36.01,22.23-53.79,33.69c-2.44-0.48-4.85-1.15-7.09-2.21
	c-18.57-8.41-37.39-16.23-55.96-24.61C267.77,223.53,283.18,214.53,298.73,205.79z"/>
<path fill="#006386" d="M193.56,207.07c0.16-0.12,0.47-0.34,0.63-0.45c12.03,6.02,24.62,10.84,36.85,16.44
	c1.87,0.59,4.01,2.28,5.92,0.92c6.37-3.53,12.59-7.37,19.22-10.41c-5.51,5.74-13.62,7.77-19.89,12.53
	c2.25,6.83,5.11,13.45,7.39,20.27c2.99,7.76,5.35,15.74,8.68,23.36c-2.93,0.12-5.27-2.02-7.87-3.03
	c-12.17-5.3-23.96-11.51-36.33-16.33c-1.74-5.37-3.96-10.57-5.94-15.86c0.26-4.49-2.36-8.31-3.37-12.53
	C197.45,216.88,194.77,212.23,193.56,207.07z"/>
<path fill="#4B413B" d="M967.51,205.57c3.58,0.33,7.061,1.31,10.48,2.38c4.05,1.24,8.109,2.49,12.24,3.47
	c-0.24,1.68-0.41,3.37-0.591,5.06c-0.12,0.5-0.37,1.49-0.489,1.98c1.149,0.55,2.34,1.12,3.539,1.63c-1.47-0.42-3.05-0.58-4.35-1.41
	c0.13-1.95,0.57-3.85,0.99-5.75c-5.01-1.43-10.01-2.9-14.98-4.45c-2.41-0.76-4.88-1.41-7.41-1.19
	C967.08,206.86,967.37,206,967.51,205.57z"/>
<path fill="#EB7E1E" d="M161.34,227.94c10.34-5.79,20.96-11.07,31.32-16.82c3.78,7.55,6.13,15.69,9.56,23.39
	c1.98,5.29,4.2,10.49,5.94,15.86c12.37,4.82,24.16,11.03,36.33,16.33c2.6,1.01,4.94,3.15,7.87,3.03c2.77-1.95,5.64-3.78,8.64-5.37
	c1.51,4.19,2.73,8.52,4.69,12.54l1.71,0.59c13.09,5.25,25.62,11.8,38.56,17.41c7.49,3.3,14.78,7.08,22.35,10.18
	c2.95-1.89,5.8-3.92,8.72-5.86c0.64,0.04,1.92,0.12,2.56,0.16c1.35,3.85,2.42,7.8,3.77,11.65c0.03,0.38,0.09,1.14,0.12,1.52
	c10.78,4.23,21.08,9.54,31.69,14.17c15.61,7.38,31.47,14.24,46.98,21.83c2.739-2.52,5.42-5.24,8.77-6.95
	c2.05-0.029,3.76,1.33,5.58,2.091c1.05,4.22,1.7,8.529,2.81,12.729l1.12,0.51c18.4,8.011,36.46,16.75,54.78,24.931
	c10.59,5.08,21.41,9.67,31.92,14.92l0.3-1.311c2.391-2.41,5.101-4.479,7.7-6.67c3.32,0.9,6.44,2.36,9.48,3.96
	c0.939,4.36,0.92,8.891,2.12,13.2l1.51,0.51c29.21,12.94,58.09,26.7,87.21,39.88c38.55,17.86,77.3,35.341,115.76,53.391
	c0.24-0.59,0.73-1.76,0.98-2.34c1.92-2.471,3.67-5.11,5.92-7.301c2.62,0.431,5.04,1.58,7.43,2.71c1.3,0.65,2.56,1.341,3.88,2.021
	c1.521,0.75,3.11,1.37,4.71,1.99c1.15,0.52,2.311,1.06,3.48,1.62c-0.601,4.27-1.181,8.54-1.4,12.85c0.39,0.16,1.16,0.46,1.54,0.62
	c53.18,24.08,106.08,48.76,159.21,72.95c-0.16,0.75-0.479,2.25-0.64,3c-0.23,0.29-0.681,0.85-0.91,1.14
	c-2.96,3.44-4.28,7.9-6.65,11.72c-11.16,21.2-22.18,42.48-33.41,63.641c-2.21,4.52-4.449,9.029-7.09,13.31
	c-10.84-5.91-22.109-10.979-32.97-16.85c-11.65-6.17-23.46-12.011-35.25-17.891c-13.75-7.38-27.72-14.319-41.67-21.31
	c-14.16-7.65-28.65-14.68-42.99-21.98c-18.29-9.88-37.149-18.63-55.42-28.54c-8.86-4.52-17.82-8.84-26.65-13.39
	c-15.479-8.37-31.39-15.9-46.96-24.08c-16.59-8.8-33.6-16.76-50.09-25.74c-20.96-10.21-41.439-21.35-62.37-31.609
	c-13.83-7.351-27.83-14.38-41.85-21.37c-19.62-10.51-39.74-20.04-59.36-30.561c-14.22-7.01-28.32-14.25-42.35-21.64
	c-9.76-4.89-19.57-9.67-29.21-14.79c-16.6-8.83-33.65-16.77-50.16-25.77c-11.55-5.811-23.16-11.5-34.59-17.54
	c-12.42-6.69-25.25-12.591-37.69-19.24c-10.74-5.74-21.68-11.08-32.56-16.53c-18.55-9.94-37.56-18.98-56.14-28.86
	c-9.23-4.76-18.54-9.39-27.88-13.94c25.19-13.1,50.17-26.61,75.5-39.42C158.76,227.26,160.01,227.76,161.34,227.94z"/>
<path fill="#4B413B" d="M142.68,232.57c4.35-2.49,8.81-4.76,13.35-6.87c0.39,0.23,1.18,0.69,1.57,0.92
	c-25.33,12.81-50.31,26.32-75.5,39.42c0.21,0.69,0.42,1.37,0.65,2.06c3.39,7.32,6.82,14.69,10.99,21.6
	c-0.52-0.07-1.54-0.2-2.06-0.26c-4.43-7.67-8.14-15.72-12.21-23.58c15.73-8.94,32.05-16.79,47.89-25.52
	c4.16-2.12,8.34-4.18,12.5-6.3C140.8,233.55,141.74,233.07,142.68,232.57z"/>
<path fill="#006386" d="M260.04,256.06c-2.45-8.02-6.21-15.65-7.89-23.9c18.57,8.38,37.39,16.2,55.96,24.61
	c2.24,1.06,4.65,1.73,7.09,2.21c0.99,6.67,3.78,12.89,5.47,19.39c2.41,8.94,5.92,17.59,7.64,26.71c-7.57-3.1-14.86-6.88-22.35-10.18
	c-12.94-5.61-25.47-12.16-38.56-17.41C265.59,270.13,262.19,263.31,260.04,256.06z"/>
<path fill="#0099CE" d="M387.24,232.46c25.62,10.37,51.29,20.6,76.85,31.11c-15.7,11.34-31.56,22.48-47.12,34.02
	c-1.96,1.33-3.979,2.58-5.96,3.88c-26.17-11.17-52.2-22.69-78.27-34.09C350.84,255.64,369.12,244.17,387.24,232.46z"/>
<path fill="#292C2F" d="M450.49,240.74c3.95-2.36,7.359-5.61,11.49-7.65c3.14,0.53,6.029,1.95,8.979,3.08
	c6.72,2.78,13.62,5.11,20.29,8.01c-3.06,4.18-7.47,6.96-11.9,9.49c-7.59-3.16-15.33-5.93-23.02-8.84
	C454.02,244.05,452.18,242.43,450.49,240.74z"/>
<path fill="#4B413B" d="M1079.66,239.16c0.35-0.24,1.029-0.72,1.37-0.96c1.55,0.29,3.09,0.67,4.63,1.08
	c47.75,14.05,95.55,27.92,143.34,41.81c-0.71,4.78-2.96,9.1-4.4,13.67c-2.91,9.03-6.39,17.851-9.229,26.9
	c-0.63-0.18-1.25-0.37-1.84-0.561c2.899-7.06,5.319-14.319,7.77-21.56c1.92-5.76,4.5-11.33,5.71-17.32
	C1177.93,267.74,1128.73,253.66,1079.66,239.16z"/>
<path fill="#181E26" d="M449.95,246.7c-0.17-2-1.771-4.64,0.54-5.96c1.689,1.69,3.529,3.31,5.84,4.09
	c7.689,2.91,15.43,5.68,23.02,8.84c4.431-2.53,8.841-5.31,11.9-9.49c0.31,0.16,0.94,0.46,1.25,0.61c0.44,1.42,0.8,2.87,1.18,4.31
	c-2.439,1.72-4.81,3.54-7.069,5.5c0.54,2.55,0.97,5.13,1.279,7.72c-2.739,1.65-5.37,3.46-7.909,5.39
	c-1.44-0.45-2.87-0.88-4.301-1.32c-0.55-3.78-1.1-7.58-2.33-11.21c-3.3,1.88-6.43,4.05-9.27,6.58c-2.96-0.59-4.72-2.91-4.92-5.86
	c-0.5-2.06-0.34-4.46-1.65-6.21C455.12,248.39,452.51,247.6,449.95,246.7z"/>
<path fill="#8A521E" d="M82.75,268.1c-0.23-0.69-0.44-1.37-0.65-2.06c9.34,4.55,18.65,9.18,27.88,13.94
	c18.58,9.88,37.59,18.92,56.14,28.86c10.88,5.45,21.82,10.79,32.56,16.53c12.44,6.649,25.27,12.55,37.69,19.24
	c11.43,6.04,23.04,11.729,34.59,17.54c16.51,9,33.56,16.939,50.16,25.77c9.64,5.12,19.45,9.9,29.21,14.79
	c14.03,7.39,28.13,14.63,42.35,21.64c19.62,10.521,39.74,20.051,59.36,30.561c14.02,6.99,28.02,14.02,41.85,21.37
	c20.931,10.26,41.41,21.399,62.37,31.609c16.49,8.98,33.5,16.94,50.09,25.74c15.57,8.18,31.48,15.71,46.96,24.08
	c8.83,4.55,17.79,8.87,26.65,13.39c18.271,9.91,37.13,18.66,55.42,28.54c14.34,7.301,28.83,14.33,42.99,21.98
	c13.95,6.99,27.92,13.93,41.67,21.31c11.79,5.88,23.6,11.721,35.25,17.891c10.86,5.87,22.13,10.939,32.97,16.85
	c2.641-4.28,4.88-8.79,7.09-13.31c11.23-21.16,22.25-42.44,33.41-63.641c2.37-3.819,3.69-8.279,6.65-11.72
	c0.359,0.64,0.74,1.28,1.13,1.94l0.29,0.489c-0.66,0.38-1.97,1.16-2.63,1.551c0.08,2.89,2.68,4.489,4.689,6.14
	c4.141,3.21,8.341,6.35,12.431,9.64c5.729,4.91,12.779,7.811,19.16,11.73c7.8,4.87,16.68,7.46,25.14,10.87
	c8.399,3.529,17.52,4.64,26.31,6.83c6.53,1.739,13.34,1.119,19.99,1.92c5.88,0.609,11.8,0.43,17.67-0.181
	c-1.18,0.511-2.38,0.95-3.58,1.34c-10.71,0.9-21.37-0.75-32.04-1.25c-8.63-1.72-17.29-3.47-25.739-5.939
	c-5.98-1.771-11.61-4.48-17.461-6.6c-5.439-1.9-10.13-5.33-15.18-8.011c-3.439-1.88-7.029-3.5-10.3-5.66
	c-7.46-5.739-15.08-11.319-22-17.71c-0.7,1.82-1.38,3.65-2.03,5.49c-0.66,1.79-1.3,3.58-1.97,5.38c3.45,3.92,8.49,5.87,12.021,9.721
	c7.579,7.579,17.5,11.949,26.56,17.42c2.78,1.68,5.67,3.229,8.76,4.31c6.83,2.38,13.46,5.311,20.29,7.71
	c5.61,1.63,11.43,2.41,17.09,3.87c11.351,3.17,23.25,2.6,34.9,3.34c10.16-1.399,20.64-1.57,30.439-4.88
	c-1.47,1.271-2.899,2.79-4.92,3.09c-7.069,1.431-14.3,1.771-21.41,2.98c-6.64,1.149-13.31-0.511-19.979-0.32
	c-11.2,0.33-21.8-3.85-32.8-5.25c-4.61-1.16-8.96-3.14-13.41-4.76c-5.27-2.08-10.69-3.79-15.72-6.4
	c-7.23-3.85-14.08-8.41-21.46-11.96c-0.54,1.61-1.101,3.23-1.67,4.84c3.209,1.82,7.709,2.67,8.789,6.761l-2.05-0.521l-0.859-0.479
	c-2.421-1.45-4.94-2.73-7.591-3.69c-9.369,18.31-17.939,37-27.27,55.33c-3.38,6.99-7.15,13.79-10.24,20.92
	c2.69,1.48,5.45,2.84,8.29,4.04c5.97-14.34,13.88-27.75,19.91-42.07c5.72-10.68,10.69-21.729,15.979-32.62
	c-0.17,1.67-0.25,3.36-0.39,5.04c-0.37,0.141-1.1,0.41-1.46,0.551c-3.99,9.229-8.939,18.01-13.1,27.17
	c-7.32,15.779-15.75,31.159-22.311,47.199c-0.319,0.2-0.949,0.601-1.27,0.801l0.16-0.67c0.39-1.62,0.8-3.23,1.21-4.841
	c-2.46-1.199-4.88-2.449-7.261-3.77c0-2.08,0.23-4.18-0.199-6.22c-3.44-2.33-7.42-3.71-10.971-5.851
	c0.301-1.63,0.61-3.25,0.931-4.87c-0.971-1.13-1.91-2.26-2.91-3.34c1.1,0.51,2.25,1.01,3.39,1.5
	c5.78-11.069,11.36-22.24,16.92-33.43c7.021-14.13,14.83-27.86,21.37-42.22c-3.41-1.75-6.88-3.391-10.37-4.971
	c-5.399,8.65-9.46,18.021-14.41,26.9c-8.279,15.51-15.899,31.39-24.689,46.62l-0.6-1.37c0.149-1.17,0.329-2.33,0.5-3.48
	c-10.381-5.609-21.03-10.699-31.57-15.979c-14.771-8.08-29.94-15.41-44.96-23c-12.811-7.03-25.92-13.48-39.01-19.96
	c-8.261-3.97-16.11-8.72-24.36-12.69c-11.28-5.649-22.67-11.09-33.65-17.3c-13.08-6.59-26.239-13.06-39.27-19.74
	c-4.76-2.77-9.67-5.239-14.69-7.47c-16.63-8.82-33.489-17.18-50.34-25.58c-13.85-7.71-28.2-14.439-42.31-21.67
	c-15.96-8.93-32.74-16.32-48.761-25.16c-13.649-7.14-27.55-13.79-41.21-20.91c-13.54-7.31-27.46-13.89-41.09-21.029
	c-13.229-7.2-26.89-13.591-40.27-20.521c-16.84-9.39-34.58-17.09-51.37-26.59c-12.02-6.03-24.12-11.92-36.04-18.17
	c-6.49-4.01-13.78-6.43-20.3-10.38c-7.92-3.7-15.49-8.061-23.35-11.9c-10.1-5.189-20.46-9.91-30.35-15.51
	c-10.84-5.59-21.75-11.05-32.67-16.46c-14.06-7.83-28.6-14.74-42.96-21.99c-18.12-10.14-37.2-18.44-55.3-28.61
	C96.71,274.98,89.75,271.48,82.75,268.1z"/>
<path fill="#006386" d="M332.38,267.66l0.36-0.28c26.07,11.4,52.1,22.92,78.27,34.09c1.98-1.3,4-2.55,5.96-3.88
	c-1.479,1.98-3.04,3.89-4.76,5.67c1.6,7.74,3.64,15.38,5.37,23.101c1.65,7.359,4,14.62,4.57,22.189
	c-15.511-7.59-31.371-14.45-46.98-21.83c-10.61-4.63-20.91-9.939-31.69-14.17c-0.03-0.38-0.09-1.14-0.12-1.52
	c0.08-1.8,0.74-3.62,0.23-5.4C339.72,293.02,335.96,280.36,332.38,267.66z"/>
<path fill="#985213" d="M82.75,268.1c7,3.38,13.96,6.88,20.9,10.38c18.1,10.17,37.18,18.47,55.3,28.61
	c14.36,7.25,28.9,14.16,42.96,21.99c10.92,5.41,21.83,10.87,32.67,16.46c9.89,5.6,20.25,10.32,30.35,15.51
	c7.86,3.84,15.43,8.2,23.35,11.9c6.52,3.95,13.81,6.37,20.3,10.38c11.92,6.25,24.02,12.14,36.04,18.17
	c16.79,9.5,34.53,17.2,51.37,26.59c13.38,6.93,27.04,13.32,40.27,20.521c13.63,7.14,27.55,13.72,41.09,21.029
	c13.66,7.12,27.561,13.771,41.21,20.91c16.021,8.84,32.801,16.23,48.761,25.16c14.109,7.23,28.46,13.96,42.31,21.67
	c16.851,8.4,33.71,16.76,50.34,25.58c5.021,2.23,9.931,4.7,14.69,7.47c13.03,6.681,26.189,13.15,39.27,19.74
	c10.98,6.21,22.37,11.65,33.65,17.3c8.25,3.971,16.1,8.721,24.36,12.69c13.09,6.479,26.199,12.93,39.01,19.96
	c15.02,7.59,30.189,14.92,44.96,23c10.54,5.28,21.189,10.37,31.57,15.979c-0.171,1.15-0.351,2.311-0.5,3.48
	c-0.181,0.4-0.53,1.189-0.7,1.59c-2.73,5.35-3.63,11.36-5.17,17.1C618.62,564.16,356.16,426.96,93.74,289.7
	C89.57,282.79,86.14,275.42,82.75,268.1z"/>
<path fill="#0099CE" d="M479.76,274.77c1.37-1.02,2.75-2.07,4.33-2.76c4.54,0.3,8.21,4.07,12.9,3.57
	c0.649,0.81,1.439,1.47,2.34,1.98c23.59,9.48,47.27,18.75,70.729,28.52c-15.909,14.26-32.609,27.62-48.689,41.689
	c-2.32,1.721-4.88-0.199-7.12-1.06c-27.47-12.2-55.13-23.979-82.58-36.22C447.56,298.4,463.8,286.77,479.76,274.77z"/>
<path fill="#00486F" d="M496.99,275.58c4.819,0.65,9.029,3.24,13.569,4.83c20.41,8.25,40.931,16.34,61.221,24.86
	c1.85,7.43,1.55,15.37,2.8,22.97c6.14-4.561,11.72-9.84,17.4-14.96c47.77,18.979,95.35,38.47,143.119,57.439
	c2.54,1.07,5.051,2.2,7.62,3.2c4.471,1.75,8.9,3.61,13.45,5.17c0.12-1.99,0.24-3.979,0.38-5.97c0.01,2.05,0,4.1-0.01,6.149
	c2.36,1.36,4.92,2.29,7.6,2.83c1.69,0.91,3.391,1.841,5.19,2.561c9.88,3.85,19.689,7.91,29.59,11.74
	c-1.34,16.6-4.07,33.08-4.8,49.72c9.149-12.19,18.45-24.28,27.55-36.5c0.72-0.94,1.5-1.84,2.45-2.561
	c3.32,0.591,6.33,2.21,9.45,3.431c42.41,16.91,84.68,34.17,127.1,51.05c0.93,0.38,1.87,0.77,2.811,1.17
	c7.76,3.29,15.58,6.43,23.47,9.39c-0.71,5.33-2.72,10.33-4.351,15.42c-0.119-2.699-0.27-5.39-0.06-8.069
	c1.021-2.061,1.88-4.2,2.67-6.351c-25.68-10.479-51.5-20.64-77.19-31.09c-27.729-11.33-55.67-22.149-83.319-33.66
	c-14.13,18.28-27.82,36.9-41.99,55.15c-2.43,16.02-3.29,32.28-4.96,48.41c-0.38-0.16-1.15-0.46-1.54-0.62
	c0.22-4.31,0.8-8.58,1.4-12.85c-1.17-0.561-2.33-1.101-3.48-1.62c0.851-0.011,2.57-0.04,3.43-0.061c0.66-4.7,1.101-9.43,1.03-14.18
	c-3.3,3.9-6.2,8.1-9.17,12.25c-1.32-0.68-2.58-1.37-3.88-2.021c5.49-1.489,8.31-6.67,11.43-10.92
	c4.891-6.359,0.5-15.779,6.13-21.779c3.46-5.101,9.21-9.431,9.2-16.141c1.33-15.45,3.351-30.83,4.8-46.25
	c-2.819-1.609-5.859-2.75-8.869-3.91c-64.41-26-128.891-51.85-193.301-77.859c-2.949-1.95-4.97,1.35-6.989,3.01
	c-8.74,7.69-17.511,15.35-26.271,23.021c-0.25-2.83,2.24-4.521,4.15-6.12c2.42-1.92,4.779-3.931,7.029-6.051
	c-0.56-7.819-1.47-15.6-2.18-23.399c-0.15-0.08-0.46-0.25-0.61-0.33c-23.46-9.77-47.14-19.04-70.729-28.52
	C498.43,277.05,497.64,276.39,496.99,275.58z"/>
<path fill="#0099CE" d="M1093.96,285.88c48.38,14.56,96.55,29.851,144.9,44.51l0.51,0.16c15.35,4.931,30.819,9.53,46.21,14.33
	c-12.47,50.16-25.19,100.25-37.87,150.36c-39.58-14.221-78.87-29.24-118.36-43.721c-6.17-2.109-12.08-5.029-18.47-6.43
	c-9.149-2.45-17.81-6.43-26.77-9.479c-19.15-7.181-38.37-14.16-57.49-21.41C1048.93,371.35,1071.39,328.59,1093.96,285.88z"/>
<path fill="#005B7B" d="M570.06,306.08c0.15,0.08,0.46,0.25,0.61,0.33c0.71,7.8,1.62,15.58,2.18,23.399
	c-2.25,2.12-4.609,4.131-7.029,6.051c-1.91,1.6-4.4,3.29-4.15,6.12c-6.24,5.92-12.92,11.34-19.26,17.149
	c0.16,6.12,1.62,12.101,2.27,18.18c1.11,9.73,2.561,19.421,3.561,29.16l-1.51-0.51c-1.2-4.31-1.181-8.84-2.12-13.2
	c-3.04-1.6-6.16-3.06-9.48-3.96c-2.6,2.19-5.31,4.26-7.7,6.67c-1.34-8.59-3.02-17.13-3.949-25.779
	c-0.73-7.311-3.091-14.521-2.11-21.921C537.45,333.7,554.15,320.34,570.06,306.08z"/>
<path fill="#006386" d="M431.41,310.72l0.26-0.229c27.45,12.24,55.11,24.02,82.58,36.22c2.24,0.86,4.8,2.78,7.12,1.06
	c-0.98,7.4,1.38,14.61,2.11,21.921c0.93,8.649,2.609,17.189,3.949,25.779l-0.3,1.311c-10.51-5.25-21.33-9.84-31.92-14.92
	c-18.32-8.181-36.38-16.92-54.78-24.931c-0.12-3.979-0.55-7.939-1.55-11.8C436.34,333.68,433.31,322.31,431.41,310.72z"/>
<path fill="#0099CE" d="M587.94,318.96c2.02-1.66,4.04-4.96,6.989-3.01c64.41,26.01,128.891,51.859,193.301,77.859
	c3.01,1.16,6.05,2.301,8.869,3.91c-10.239,12.29-19.979,25.011-30.09,37.42c-4.1,5.311-8.6,10.33-12.18,16.021
	c-4.93-1.4-9.521-3.72-14.22-5.71c-39.21-17.141-78.44-34.22-117.641-51.38c-26.89-11.561-53.56-23.63-80.56-34.94
	c6.34-5.81,13.02-11.229,19.26-17.149C570.43,334.31,579.2,326.65,587.94,318.96z"/>
<path fill="#00486F" d="M1239.37,330.55l1.19-1.14c15.629,4.83,31.3,9.58,46.89,14.55c-10.47,43.08-21.66,85.99-32.34,129.021
	c-10.62,42.02-21.19,84.05-31.771,126.09c-0.52,1.85-0.859,3.79-1.81,5.489c-11.73,18.62-23.37,37.301-35.061,55.95
	c-2.239,3.03-3.53,6.98-6.489,9.36c-20.5-8.49-40.471-18.28-60.931-26.88c-0.41-0.471-1.239-1.41-1.649-1.88
	c9.399,2.739,17.979,7.659,27.02,11.37c11.9,4.92,23.26,11.13,35.36,15.56c9.489-14.38,18.239-29.22,27.51-43.74
	c4.47-7.45,9.75-14.439,13.45-22.319c6.38-24.5,12.42-49.101,18.67-73.641c2.52-10.43,5.47-20.77,7.67-31.28
	c-41.63-15.47-83.26-30.93-124.891-46.39c-3.76-1.31-7.379-3.41-11.47-3.31c0.07-0.761,0.08-1.53,0.16-2.271
	c6.39,1.4,12.3,4.32,18.47,6.43c39.49,14.48,78.78,29.5,118.36,43.721c12.68-50.11,25.4-100.2,37.87-150.36
	C1270.189,340.08,1254.72,335.48,1239.37,330.55z"/>
<path fill="#4B413B" d="M1059.439,339.29c1.051-1.79,3.301-0.3,4.91-0.37c-0.199,0.39-0.6,1.19-0.8,1.58
	c-1.069-0.13-2.12-0.26-3.16-0.38c-7.04,13.61-14.56,26.97-21.38,40.68c-0.949,2.22-1.779,4.47-2.62,6.72
	c-0.479,0.08-1.43,0.24-1.909,0.32c0.109-0.41,0.33-1.229,0.439-1.64c5.91-14.53,14.79-27.63,21.16-41.931
	c-2.08-0.68-4.17-1.35-6.23-2.01c-7.6,13.61-14.77,27.46-22.46,41.021c0.7,0.189,2.091,0.55,2.79,0.729
	c-1.05,0.26-2.08,0.54-3.09,0.84c-0.59,1.58-1.109,3.2-1.9,4.69c-1.459,1.04-2.239-1.37-3.31-1.94c0.56,0.15,1.67,0.46,2.23,0.61
	c1.89-7.09,6.319-13.03,9.529-19.53c3.811-7.41,8.49-14.42,11.49-22.229c-1.36-0.13-2.72-0.26-4.06-0.38
	c-7.381,13.38-14.811,26.729-22.09,40.16c-0.801,2.06-1.45,4.18-2.101,6.3c-0.39-0.141-1.149-0.41-1.54-0.55
	c1.221-4.341,3.12-8.45,5.471-12.29c6.52-11.881,13.17-23.69,19.56-35.641c1.95,0.44,3.899,0.891,5.86,1.36
	c0.949-1.601,1.899-3.2,2.859-4.8c2.63,0.72,5.25,1.479,7.87,2.279C1057.74,341.67,1058.5,340.42,1059.439,339.29z"/>
<path fill="#D8A632" d="M1060.39,340.12c1.04,0.12,2.091,0.25,3.16,0.38c-7.51,13.83-14.47,27.94-22.08,41.7
	c-0.609-0.351-1.85-1.05-2.46-1.4C1045.83,367.09,1053.35,353.73,1060.39,340.12z"/>
<path fill="#D8A632" d="M1049.85,342.26c2.061,0.66,4.15,1.33,6.23,2.01c-6.37,14.301-15.25,27.4-21.16,41.931
	c-1.52-0.88-3.04-1.78-4.74-2.19c-0.699-0.18-2.09-0.54-2.79-0.729C1035.08,369.72,1042.25,355.87,1049.85,342.26z"/>
<path fill="#292C2F" d="M727.68,355.57c3.181-3.851,6.551-7.57,10.15-11.051c12.67,4.95,25.41,9.73,38,14.881
	c-0.24,1.439,0,3.13-1.1,4.279c-2.461,2.91-4.66,6.16-7.73,8.46c-2.51,0.021-4.8-1.17-7.04-2.14c-6.69-3.21-13.78-5.43-20.62-8.28
	c-3.46-1.35-6.8-3.029-10.41-3.92c-1.649,0.94-0.569,2.7-0.399,4.13c-0.54-0.21-1.63-0.64-2.17-0.85
	C726.58,359.2,726.16,357.02,727.68,355.57z"/>
<path fill="#D8A632" d="M1041.07,346.07c1.34,0.12,2.699,0.25,4.06,0.38c-3,7.81-7.68,14.819-11.49,22.229
	c-3.21,6.5-7.64,12.44-9.529,19.53c-0.561-0.15-1.671-0.46-2.23-0.61c-0.979-0.47-1.94-0.93-2.899-1.369
	C1026.26,372.8,1033.689,359.45,1041.07,346.07z"/>
<path fill="#181F25" d="M728.53,361.93c-0.17-1.43-1.25-3.189,0.399-4.13c3.61,0.891,6.95,2.57,10.41,3.92
	c6.84,2.851,13.93,5.07,20.62,8.28c2.24,0.97,4.53,2.16,7.04,2.14c3.07-2.3,5.27-5.55,7.73-8.46c1.1-1.149,0.859-2.84,1.1-4.279
	c0.95,0.43,1.9,0.88,2.86,1.35c0.13,4.55-3.471,7.61-6.21,10.72c-3.23,3.2-5.03,7.511-8.341,10.63c-2.68-0.54-5.239-1.47-7.6-2.83
	c0.01-2.05,0.02-4.1,0.01-6.149c-3.01-1.18-6-2.42-8.92-3.79c-1.75,1.41-3.39,2.939-4.91,4.59c-2.569-1-5.08-2.13-7.62-3.2
	c0.12-2,0.25-4,0.381-5.989C733.16,363.78,730.85,362.84,728.53,361.93z"/>
<path fill="#006386" d="M544.68,377.31c-0.649-6.079-2.109-12.06-2.27-18.18c27,11.311,53.67,23.38,80.56,34.94
	c39.2,17.16,78.431,34.239,117.641,51.38c4.699,1.99,9.29,4.31,14.22,5.71c-0.07,15.439-2.75,30.79-2.64,46.24
	c-0.25,0.58-0.74,1.75-0.98,2.34c-38.46-18.05-77.21-35.53-115.76-53.391c-29.12-13.18-58-26.939-87.21-39.88
	C547.24,396.73,545.79,387.04,544.68,377.31z"/>
<path fill="#43B046" d="M742.72,373.92c1.521-1.65,3.16-3.18,4.91-4.59c2.92,1.37,5.91,2.61,8.92,3.79
	c-0.14,1.99-0.26,3.979-0.38,5.97C751.62,377.53,747.19,375.67,742.72,373.92z"/>
<path fill="#292C2F" d="M954.35,400.99C959.9,392,965.3,382.9,971.01,374c7.49,2.34,14.79,5.26,22.18,7.91
	c-0.379,2.149-0.89,4.3-2.05,6.17c-4.75,8.39-9.87,16.58-14.439,25.07c-0.75-1.19-1.021-2.75-2.15-3.62
	C968.22,405.75,960.65,404.82,954.35,400.99z"/>
<path fill="#8C6C20" d="M1039.01,380.8c0.61,0.351,1.851,1.05,2.46,1.4c-2.88,5.34-5.34,10.899-8.359,16.17
	c-5.46-1.84-10.83-3.87-16.23-5.84c0.65-2.12,1.3-4.24,2.101-6.3c0.959,0.439,1.92,0.899,2.899,1.369
	c1.07,0.57,1.851,2.98,3.31,1.94c0.791-1.49,1.311-3.11,1.9-4.69c1.01-0.3,2.04-0.58,3.09-0.84c1.7,0.41,3.221,1.311,4.74,2.19
	c-0.109,0.41-0.33,1.229-0.439,1.64c0.479-0.08,1.43-0.24,1.909-0.32C1037.23,385.27,1038.061,383.02,1039.01,380.8z"/>
<path fill="#005B7B" d="M767.01,435.14c10.11-12.409,19.851-25.13,30.09-37.42c-1.449,15.42-3.47,30.8-4.8,46.25
	c0.01,6.71-5.74,11.04-9.2,16.141c-5.63,6-1.239,15.42-6.13,21.779c-3.12,4.25-5.939,9.431-11.43,10.92
	c-2.39-1.13-4.81-2.279-7.43-2.71c-2.25,2.19-4,4.83-5.92,7.301c-0.11-15.45,2.569-30.801,2.64-46.24
	C758.41,445.47,762.91,440.45,767.01,435.14z"/>
<path fill="#1B1D1F" d="M953.48,406.17c-0.11-1.78,0.3-3.51,0.869-5.18c6.301,3.83,13.87,4.76,20.2,8.54
	c1.13,0.87,1.4,2.43,2.15,3.62c-1.061,0.5-2.101,1-3.14,1.5c-0.15,1.069-0.301,2.14-0.44,3.22c-1.181,1.14-2.16,2.439-2.98,3.85
	c-4.54-1.92-9.229-3.42-13.76-5.33c0.94-2.81,1.72-5.659,2.22-8.58C956.88,407.26,955.18,406.7,953.48,406.17z"/>
<path fill="#0099CE" d="M782.71,463.5c14.17-18.25,27.86-36.87,41.99-55.15c27.649,11.511,55.59,22.33,83.319,33.66
	c25.69,10.45,51.511,20.61,77.19,31.09c-0.79,2.15-1.649,4.29-2.67,6.351c-3.7,5.189-6.12,11.13-9.33,16.609
	c-2.78,5.551-6.04,10.851-8.6,16.511c-5.07,7.899-8.71,16.609-13.721,24.55c-43.05-18.55-85.93-37.49-128.92-56.17
	C808.92,475.05,795.55,469.83,782.71,463.5z"/>
<path fill="#006386" d="M1010.13,460.99c6.681-15.15,10.15-31.51,16.49-46.79c19.12,7.25,38.34,14.229,57.49,21.41
	c8.96,3.05,17.62,7.029,26.77,9.479c-0.08,0.74-0.09,1.51-0.16,2.271c-0.72,5.069-3.38,9.55-5.14,14.29
	c-10.77,26.369-22.01,52.569-32.48,79.05c49.25,20.33,98.34,41.06,147.641,61.28c-3.7,7.88-8.98,14.869-13.45,22.319
	c-9.271,14.521-18.021,29.36-27.51,43.74c-12.101-4.43-23.46-10.64-35.36-15.56c-9.04-3.711-17.62-8.631-27.02-11.37
	c-0.271-0.091-0.811-0.28-1.08-0.37c-0.561-0.2-1.681-0.61-2.24-0.811c-1.33-0.58-2.67-1.229-3.95-1.84
	c1.181-2.79,2.74-5.399,4.65-7.75c-0.2-0.07-0.591-0.2-0.79-0.27c-1.801-0.71-3.561-1.45-5.33-2.181c1.26-2.06,2.359-4.21,3.5-6.34
	l-0.63-0.17c-1.61-0.59-3.181-1.25-4.72-1.899c1.029-2.061,2.1-4.101,3.18-6.131l-0.561-0.199
	c-19.359-8.261-38.46-17.141-57.899-25.2c13.39-31.32,26.6-62.73,39.38-94.311c-26.93-10.569-53.78-21.35-80.79-31.71
	C1010.12,461.69,1010.13,461.22,1010.13,460.99z"/>
<path fill="#0099CE" d="M1110.72,447.36c4.091-0.101,7.71,2,11.47,3.31c41.631,15.46,83.261,30.92,124.891,46.39
	c-2.2,10.511-5.15,20.851-7.67,31.28c-6.25,24.54-12.29,49.141-18.67,73.641c-49.301-20.221-98.391-40.95-147.641-61.28
	c10.471-26.48,21.711-52.681,32.48-79.05C1107.34,456.91,1110,452.43,1110.72,447.36z"/>
<path fill="#644B37" d="M960.67,461.54c8.19-2.83,16.95-2.84,25.48-3.74c8-0.26,15.979,0.92,23.989,0.94
	c-0.029,0.74-0.029,1.49-0.01,2.25c0,0.229-0.01,0.7-0.01,0.939c-0.51-0.37-1.53-1.109-2.04-1.47c-8.72-0.37-17.47-1.78-26.18-0.64
	c-6.17,0.77-12.561,0.5-18.42,2.89C962.54,462.31,961.6,461.92,960.67,461.54z"/>
<path fill="#EB7E1E" d="M963.48,462.71c5.859-2.39,12.25-2.12,18.42-2.89c8.71-1.141,17.46,0.27,26.18,0.64
	c0.51,0.36,1.53,1.1,2.04,1.47c27.01,10.36,53.86,21.141,80.79,31.71c-12.78,31.58-25.99,62.99-39.38,94.311
	c19.439,8.06,38.54,16.939,57.899,25.2c-6.729,3.46-12.74,8.51-20.3,10.14c-6.29,1.77-12.43,4.32-19.01,4.82
	c-8.04,0.71-16.101,2.159-24.19,1.319c-7.06-0.67-14.26-0.43-21.18-2.17c-6.16-1.51-12.37-2.729-18.54-4.17
	c-8.16-2.88-16.24-6.04-24.3-9.17c-7.07-3.85-14.18-7.66-21.13-11.71c-7.601-5.85-15.53-11.32-22.48-17.95
	c1.41-2.87,2.71-5.79,4.09-8.66c8.74-16.39,17.25-32.89,25.891-49.33c1.63-3.5,4.67-6.229,5.68-10.029
	c2.851-9.59,5.97-19.09,8.64-28.721c1.631-5.09,3.641-10.09,4.351-15.42C979.061,469.14,971.24,466,963.48,462.71z"/>
<path fill="#006386" d="M777.75,511.91c1.67-16.13,2.53-32.391,4.96-48.41c12.84,6.33,26.21,11.55,39.26,17.45
	c42.99,18.68,85.87,37.62,128.92,56.17c5.011-7.94,8.65-16.65,13.721-24.55c-0.49,5.449-4.221,9.699-6.53,14.46
	c-2.44,4.95-5.9,9.489-7.09,14.979c-1.4,6.33-3.801,12.36-5.38,18.65c-1.181,4.96-3.57,9.71-3.221,14.939
	c-1.38,2.87-2.68,5.79-4.09,8.66l-0.99,0.45c-0.05,0.69-0.14,2.07-0.189,2.75c-0.23,1.15-0.43,2.31-0.58,3.48
	c-0.39-0.66-0.771-1.301-1.13-1.94c0.229-0.29,0.68-0.85,0.91-1.14c0.16-0.75,0.479-2.25,0.64-3
	C883.83,560.67,830.93,535.99,777.75,511.91z"/>
<path fill="#005B7B" d="M973.21,496.06c3.21-5.479,5.63-11.42,9.33-16.609c-0.21,2.68-0.06,5.37,0.06,8.069
	c-2.67,9.631-5.789,19.131-8.64,28.721c-1.01,3.8-4.05,6.529-5.68,10.029c-8.641,16.44-17.15,32.94-25.891,49.33
	c-0.35-5.229,2.04-9.979,3.221-14.939c1.579-6.29,3.979-12.32,5.38-18.65c1.189-5.49,4.649-10.029,7.09-14.979
	c2.31-4.761,6.04-9.011,6.53-14.46C967.17,506.91,970.43,501.61,973.21,496.06z"/>
<path fill="#43B046" d="M769.42,494.83c2.97-4.15,5.87-8.35,9.17-12.25c0.07,4.75-0.37,9.479-1.03,14.18
	c-0.859,0.021-2.579,0.05-3.43,0.061C772.53,496.2,770.94,495.58,769.42,494.83z"/>
<path fill="#A25715" d="M938.3,584.26c6.95,6.63,14.88,12.101,22.48,17.95c-0.8,2.18-1.5,4.4-2.12,6.65
	c-7.41-5.61-15.2-10.87-21.83-17.431l-0.29-0.489c0.15-1.171,0.35-2.33,0.58-3.48c0.05-0.68,0.14-2.06,0.189-2.75L938.3,584.26z"/>
<path fill="#EB7E1E" d="M934.2,592.98c0.66-0.391,1.97-1.171,2.63-1.551c6.63,6.561,14.42,11.82,21.83,17.431
	c9.67,5.279,18.939,11.479,29.41,15.1c4.859,1.74,9.609,3.81,14.55,5.35c11.35,2.54,22.66,6.03,34.39,6.2
	c6.351,0.29,12.74,1.34,19.09,0.34c7.11-1.029,14.45-0.949,21.33-3.26c5.971-1.99,12.28-3.229,17.811-6.38
	c3.89-2.18,7.68-4.54,11.57-6.729c1.539,0.649,3.109,1.31,4.72,1.899c-7.46,4.33-14.431,9.86-22.91,12.09
	c-5.86,1.63-11.431,4.42-17.53,5.03c-3.84,0.42-7.7,0.7-11.5,1.43c-5.87,0.61-11.79,0.79-17.67,0.181
	c-6.65-0.801-13.46-0.181-19.99-1.92c-8.79-2.19-17.91-3.301-26.31-6.83c-8.46-3.41-17.34-6-25.14-10.87
	c-6.381-3.92-13.431-6.82-19.16-11.73c-4.09-3.29-8.29-6.43-12.431-9.64C936.88,597.47,934.28,595.87,934.2,592.98z"/>
<path fill="#A25715" d="M933.29,596.1c6.92,6.391,14.54,11.971,22,17.71c-0.521,1.71-1.03,3.431-1.521,5.15
	c-7.779-5.43-14.789-11.87-22.51-17.37C931.91,599.75,932.59,597.92,933.29,596.1z"/>
<path fill="#EB7E1E" d="M931.26,601.59c7.721,5.5,14.73,11.94,22.51,17.37c10.03,5.54,19.601,12.2,30.561,15.83
	c6.16,2.22,12.08,5.16,18.53,6.52c6.279,1.32,12.529,2.771,18.8,4.15c6.68,1.521,13.58,0.74,20.34,1.63
	c4.67,0.63,9.38,0.21,14.04-0.43c7.06-0.96,14.34-1.09,21.07-3.69c5.76-2.229,12.09-3.069,17.409-6.359
	c4.681-2.95,9.591-5.561,14.141-8.721c1.77,0.73,3.529,1.471,5.33,2.181c-2.471,2.25-5.09,4.35-8.051,5.93
	c-5.14,2.8-9.699,6.73-15.329,8.58c-3.761,1.29-7.601,2.34-11.261,3.88c-9.8,3.31-20.279,3.48-30.439,4.88
	c-11.65-0.74-23.55-0.17-34.9-3.34c-5.66-1.46-11.479-2.24-17.09-3.87c-6.83-2.399-13.46-5.33-20.29-7.71
	c-3.09-1.08-5.979-2.63-8.76-4.31c-9.06-5.471-18.98-9.841-26.56-17.42c-3.53-3.851-8.57-5.801-12.021-9.721
	C929.96,605.17,930.6,603.38,931.26,601.59z"/>
<path fill="#955114" d="M958.66,608.86c0.62-2.25,1.32-4.471,2.12-6.65c6.95,4.05,14.06,7.86,21.13,11.71
	c8.06,3.13,16.14,6.29,24.3,9.17c-0.62,0.33-1.86,0.98-2.479,1.3c-0.381,1.641-0.761,3.271-1.11,4.92
	c-4.94-1.54-9.69-3.609-14.55-5.35C977.6,620.34,968.33,614.14,958.66,608.86z"/>
<path fill="#D8A632" d="M912.27,637.33c4.95-8.88,9.011-18.25,14.41-26.9c3.49,1.58,6.96,3.221,10.37,4.971
	c-6.54,14.359-14.35,28.09-21.37,42.22c-5.56,11.189-11.14,22.36-16.92,33.43c-1.14-0.49-2.29-0.99-3.39-1.5
	c-2.351-1.229-4.64-2.53-6.92-3.85c-0.22-0.44-0.65-1.311-0.87-1.75C896.37,668.72,903.99,652.84,912.27,637.33z"/>
<path fill="#8A4B12" d="M1109.43,613.15l0.561,0.199c-1.08,2.03-2.15,4.07-3.18,6.131c-3.891,2.189-7.681,4.55-11.57,6.729
	c-5.53,3.15-11.84,4.39-17.811,6.38c-6.88,2.311-14.22,2.23-21.33,3.26c-6.35,1-12.739-0.05-19.09-0.34
	c-11.729-0.17-23.04-3.66-34.39-6.2c0.35-1.649,0.729-3.279,1.11-4.92c0.619-0.319,1.859-0.97,2.479-1.3
	c6.17,1.44,12.38,2.66,18.54,4.17c6.92,1.74,14.12,1.5,21.18,2.17c8.09,0.84,16.15-0.609,24.19-1.319
	c6.58-0.5,12.72-3.051,19.01-4.82C1096.689,621.66,1102.7,616.61,1109.43,613.15z"/>
<path fill="#955013" d="M955.29,613.81c3.271,2.16,6.86,3.78,10.3,5.66c5.05,2.681,9.74,6.11,15.18,8.011
	c5.851,2.119,11.48,4.829,17.461,6.6c1.34,2.52,2.449,5.27,4.63,7.229c-6.45-1.359-12.37-4.3-18.53-6.52
	c-10.96-3.63-20.53-10.29-30.561-15.83C954.26,617.24,954.77,615.52,955.29,613.81z"/>
<path fill="#8A4B12" d="M1111.53,621.38l0.63,0.17c-1.141,2.13-2.24,4.28-3.5,6.34c-4.55,3.16-9.46,5.771-14.141,8.721
	c-5.319,3.29-11.649,4.13-17.409,6.359c-6.73,2.601-14.011,2.73-21.07,3.69c-4.66,0.64-9.37,1.06-14.04,0.43
	c-6.76-0.89-13.66-0.109-20.34-1.63c-6.271-1.38-12.521-2.83-18.8-4.15c-2.181-1.96-3.29-4.71-4.63-7.229
	c8.449,2.47,17.109,4.22,25.739,5.939c10.67,0.5,21.33,2.15,32.04,1.25c1.2-0.39,2.4-0.829,3.58-1.34c3.8-0.729,7.66-1.01,11.5-1.43
	c6.1-0.61,11.67-3.4,17.53-5.03C1097.1,631.24,1104.07,625.71,1111.53,621.38z"/>
<path fill="#D8A632" d="M898.12,697.09c13.33-24.95,25.24-50.63,38.729-75.49c3.33,1.591,6.641,3.261,10.011,4.83
	c-2.841,7.311-6.87,14.09-10.21,21.17c-9.21,18.4-18.431,36.801-27.48,55.271C905.48,700.94,901.84,698.93,898.12,697.09z"/>
<path fill="#955013" d="M947.98,630.68c0.569-1.609,1.13-3.229,1.67-4.84c7.38,3.55,14.229,8.11,21.46,11.96
	c5.029,2.61,10.45,4.32,15.72,6.4c4.45,1.62,8.8,3.6,13.41,4.76c-1.25,1.41-2.5,2.82-3.75,4.24c0.49,0.68,0.979,1.38,1.49,2.09
	c-5.211-1.1-10.03-3.45-15.011-5.26c-5.64-2.29-11.54-4.08-16.79-7.23c-3.149-1.78-6.16-3.8-9.41-5.359
	C955.689,633.35,951.189,632.5,947.98,630.68z"/>
<path fill="#8C4B12" d="M1113.99,630.07c0.199,0.069,0.59,0.199,0.79,0.27c-1.91,2.351-3.47,4.96-4.65,7.75
	c1.28,0.61,2.62,1.26,3.95,1.84c-1.38-0.41-2.76-0.76-4.13-1.109c-5.07,3.729-10.601,6.779-15.851,10.25
	c-5.859,3.939-12.949,5.149-19.43,7.67c-6.28,2.529-13.14,2.569-19.75,3.6c-5.25,0.78-10.57,1.51-15.88,0.88
	c-7.72-0.899-15.601-0.2-23.2-2.02c-5.95-1.351-11.89-2.7-17.859-3.91c-0.511-0.71-1-1.41-1.49-2.09c1.25-1.42,2.5-2.83,3.75-4.24
	c11,1.4,21.6,5.58,32.8,5.25c6.67-0.19,13.34,1.47,19.979,0.32c7.11-1.21,14.341-1.55,21.41-2.98c2.021-0.3,3.45-1.819,4.92-3.09
	c3.66-1.54,7.5-2.59,11.261-3.88c5.63-1.85,10.189-5.78,15.329-8.58C1108.9,634.42,1111.52,632.32,1113.99,630.07z"/>
<path fill="#D8A632" d="M946.27,632.75c2.65,0.96,5.17,2.24,7.591,3.69c-0.23,0.479-0.69,1.439-0.921,1.909
	c-5.289,10.891-10.26,21.94-15.979,32.62c-6.03,14.32-13.94,27.73-19.91,42.07c-2.84-1.2-5.6-2.56-8.29-4.04
	c3.09-7.13,6.86-13.93,10.24-20.92C928.33,669.75,936.9,651.06,946.27,632.75z"/>
<path fill="#955114" d="M952.939,638.35c0.23-0.47,0.69-1.43,0.921-1.909l0.859,0.479c-0.069,0.53-0.2,1.59-0.27,2.12
	c6.18,3.34,12.05,7.3,18.479,10.17c7.721,3.03,15.431,6.07,23.15,9.09c-0.391,1.74-0.77,3.48-1.141,5.23
	c-8.68-3.57-17.59-6.61-26.18-10.38c-5.42-3.21-11.29-5.82-16.21-9.761C952.689,641.71,952.77,640.02,952.939,638.35z"/>
<path fill="#EB7E1E" d="M954.72,636.92l2.05,0.521c3.25,1.56,6.261,3.579,9.41,5.359c5.25,3.15,11.15,4.94,16.79,7.23
	c4.98,1.81,9.8,4.16,15.011,5.26c5.97,1.21,11.909,2.56,17.859,3.91c7.6,1.819,15.48,1.12,23.2,2.02c5.31,0.63,10.63-0.1,15.88-0.88
	c6.61-1.03,13.47-1.07,19.75-3.6c6.48-2.521,13.57-3.73,19.43-7.67c5.25-3.471,10.78-6.521,15.851-10.25
	c1.37,0.35,2.75,0.699,4.13,1.109c0.56,0.2,1.68,0.61,2.24,0.811c0.18,0.58,0.52,1.74,0.699,2.33c-6,5.06-13.289,8.199-19.59,12.85
	c-10.109,2.92-19.81,7.72-30.47,8.3c-7.35,0.5-14.63,2.41-22.021,1.7c-8.22-0.72-16.55-0.53-24.67-2.05
	c-8.05-1.96-16.209-3.37-24.189-5.57c-7.72-3.02-15.43-6.06-23.15-9.09c-6.43-2.87-12.3-6.83-18.479-10.17
	C954.52,638.51,954.65,637.45,954.72,636.92z"/>
<path fill="#895A28" d="M1116.32,640.74c0.27,0.09,0.81,0.279,1.08,0.37c0.41,0.47,1.239,1.409,1.649,1.88
	c-2.91,3.27-5.51,7.67-10.03,8.75c-4.31,0.02-7.319,3.83-11.59,4.18c6.301-4.65,13.59-7.79,19.59-12.85
	C1116.84,642.48,1116.5,641.32,1116.32,640.74z"/>
<path fill="#894B12" d="M1097.43,655.92c4.271-0.35,7.28-4.16,11.59-4.18c-3.439,2.75-7.319,4.84-11.039,7.18
	c-6,3.82-13.16,4.95-19.721,7.46c-6.189,2.53-12.96,2.601-19.5,3.45c-9.83,1.58-19.84,0.84-29.72,0.12
	c-11.64-0.25-22.72-4.33-34.101-6.42c0.371-1.75,0.75-3.49,1.141-5.23c7.98,2.2,16.14,3.61,24.189,5.57
	c8.12,1.52,16.45,1.33,24.67,2.05c7.391,0.71,14.671-1.2,22.021-1.7C1077.62,663.64,1087.32,658.84,1097.43,655.92z"/>
<path fill="#8C6C20" d="M886.98,682.58l0.6,1.37c0.22,0.439,0.65,1.31,0.87,1.75c2.28,1.319,4.569,2.62,6.92,3.85
	c1,1.08,1.939,2.21,2.91,3.34c-0.32,1.62-0.63,3.24-0.931,4.87c3.551,2.141,7.53,3.521,10.971,5.851
	c0.43,2.04,0.199,4.14,0.199,6.22c2.381,1.32,4.801,2.57,7.261,3.77c-0.41,1.61-0.82,3.221-1.21,4.841
	c-10.891-4.881-21.23-10.891-31.79-16.41c1.51-4.141,2.31-8.5,3.63-12.71c0.63-1.7,0.5-3.48-0.13-5.15
	C886.45,683.77,886.8,682.98,886.98,682.58z"/>
<path fill="#585139" d="M881.11,701.27c1.54-5.739,2.439-11.75,5.17-17.1c0.63,1.67,0.76,3.45,0.13,5.15
	c-1.32,4.21-2.12,8.569-3.63,12.71l-0.761,0.87C881.79,702.49,881.34,701.68,881.11,701.27z"/>
</svg>
