<?xml version="1.0" encoding="utf-8"?>
<!-- Generator: Adobe Illustrator 16.0.0, SVG Export Plug-In . SVG Version: 6.00 Build 0)  -->
<!DOCTYPE svg PUBLIC "-//W3C//DTD SVG 1.1//EN" "http://www.w3.org/Graphics/SVG/1.1/DTD/svg11.dtd">
<svg version="1.1" xmlns="http://www.w3.org/2000/svg" xmlns:xlink="http://www.w3.org/1999/xlink" x="0px" y="0px" width="2160px"
	 height="1728px" viewBox="0 0 2160 1728" enable-background="new 0 0 2160 1728" xml:space="preserve">
<g id="Layer_1">
</g>
<g id="die_line">
	<polyline fill="none" stroke="#000000" points="1792.421,1308.924 1792.421,1297.674 1648.421,1297.674 1648.421,1308.924 	"/>
	<polyline fill="none" stroke="#000000" points="1378.421,1308.924 1378.421,1297.674 1234.421,1297.674 1234.421,1308.924 	"/>
	<line fill="none" stroke="#000000" stroke-dasharray="4,3" x1="2013.13" y1="1304.424" x2="2100.88" y2="1304.424"/>
	<line fill="none" stroke="#000000" x1="2100.88" y1="1304.424" x2="2100.88" y2="390.925"/>
	<polyline fill="none" stroke="#000000" stroke-dasharray="4,3" points="2100.88,390.925 2013.13,390.925 2013.13,1304.424 	"/>
	<line fill="none" stroke="#000000" x1="1792.421" y1="1308.924" x2="1648.421" y2="1308.924"/>
	<line fill="none" stroke="#000000" x1="1378.421" y1="1308.924" x2="1234.421" y2="1308.924"/>
	<line fill="none" stroke="#000000" stroke-dasharray="4,3" x1="2013.13" y1="1308.924" x2="1092.671" y2="1308.924"/>
	<line fill="none" stroke="#000000" stroke-dasharray="4,3" x1="1094.921" y1="1304.424" x2="1094.921" y2="390.925"/>
	<line fill="none" stroke="#000000" stroke-dasharray="4,3" x1="1092.671" y1="386.425" x2="2015.38" y2="386.425"/>
	<line fill="none" stroke="#000000" x1="1234.421" y1="386.425" x2="1378.421" y2="386.425"/>
	<polyline fill="none" stroke="#000000" points="1234.421,386.425 1234.421,397.675 1378.421,397.675 1378.421,386.425 	"/>
	<line fill="none" stroke="#000000" x1="1648.421" y1="386.425" x2="1792.421" y2="386.425"/>
	<polyline fill="none" stroke="#000000" points="1648.421,386.425 1648.421,397.675 1792.421,397.675 1792.421,386.425 	"/>
	<line fill="none" stroke="#000000" stroke-dasharray="4,3" x1="1094.921" y1="390.925" x2="1007.171" y2="390.925"/>
	<line fill="none" stroke="#000000" stroke-dasharray="4,3" x1="1000.421" y1="390.925" x2="1000.421" y2="1304.424"/>
	<line fill="none" stroke="#000000" stroke-dasharray="4,3" x1="1007.171" y1="1304.424" x2="1094.921" y2="1304.424"/>
	<line fill="none" stroke="#000000" stroke-dasharray="4,3" x1="152.171" y1="1297.674" x2="152.171" y2="397.675"/>
	<polyline fill="none" stroke="#000000" points="2013.13,1304.424 2015.38,1308.924 2015.38,1398.924 	"/>
	<polyline fill="none" stroke="#000000" points="2100.88,1304.424 2100.88,1380.924 2015.38,1380.924 	"/>
	<line fill="none" stroke="#000000" stroke-dasharray="4,3" x1="1092.671" y1="1398.924" x2="2015.38" y2="1398.924"/>
	<line fill="none" stroke="#000000" x1="2015.38" y1="1398.924" x2="2010.88" y2="1407.924"/>
	<line fill="none" stroke="#000000" stroke-dasharray="4,3" x1="1097.171" y1="1407.924" x2="2010.88" y2="1407.924"/>
	<polyline fill="none" stroke="#000000" points="2010.88,1407.924 2010.88,1495.676 1792.421,1495.676 1787.921,1500.176 
		1652.921,1500.176 1648.421,1495.676 1378.421,1495.676 1373.921,1500.176 1238.921,1500.176 1234.421,1495.676 1097.171,1495.676 
		1097.171,1407.924 1092.671,1398.924 1092.671,1308.924 1094.921,1304.424 	"/>
	<polyline fill="none" stroke="#000000" points="1092.671,1380.924 1007.171,1380.924 1007.171,1304.424 1000.421,1304.424 
		993.671,1311.174 152.171,1311.174 152.171,1297.674 77.921,1297.674 74.801,1297.395 71.771,1296.584 68.921,1295.264 
		66.351,1293.465 64.131,1291.244 62.331,1288.674 61.011,1285.824 60.201,1282.795 59.921,1279.674 59.921,415.675 60.201,412.544 
		61.011,409.515 62.331,406.675 64.131,404.104 66.351,401.885 68.921,400.084 71.771,398.754 74.801,397.945 77.921,397.675 
		152.171,397.675 152.171,384.175 993.671,384.175 1000.421,390.925 1007.171,390.925 1007.171,314.425 1092.671,314.425 	"/>
	<polyline fill="none" stroke="#000000" points="1094.921,390.925 1092.671,386.425 1092.671,296.425 1097.171,287.425 
		1097.171,199.675 1234.421,199.675 1238.921,195.175 1373.921,195.175 1378.421,199.675 1648.421,199.675 1652.921,195.175 
		1787.921,195.175 1792.421,199.675 2010.88,199.675 2010.88,287.425 	"/>
	<line fill="none" stroke="#000000" stroke-dasharray="4,3" x1="2010.88" y1="287.425" x2="1097.171" y2="287.425"/>
	<line fill="none" stroke="#000000" x1="2010.88" y1="287.425" x2="2015.38" y2="296.425"/>
	<line fill="none" stroke="#000000" stroke-dasharray="4,3" x1="2015.38" y1="296.425" x2="1092.671" y2="296.425"/>
	<polyline fill="none" stroke="#000000" points="2015.38,314.425 2100.88,314.425 2100.88,390.925 	"/>
	<polyline fill="none" stroke="#000000" points="2015.38,296.425 2015.38,386.425 2013.13,390.925 	"/>
	<polyline fill="none" stroke="#000000" points="19,1500.176 61.011,1500.176 61.011,1537 	"/>
	<polyline fill="none" stroke="#000000" points="2100.88,1537 2100.88,1500.176 2139,1500.176 	"/>
	<polyline fill="none" stroke="#000000" points="2139,195.175 2100.88,195.175 2100.88,155 	"/>
	<polyline fill="none" stroke="#000000" points="19,195.175 61.011,195.175 61.011,155 	"/>
	<line fill="#FFFFFF" stroke="#000000" stroke-dasharray="4,3" x1="2779.419" y1="238.57" x2="4069.176" y2="238.57"/>
	<line fill="none" stroke="#000000" stroke-dasharray="4,3" x1="3286.6" y1="239.73" x2="3286.6" y2="1176.02"/>
	<line fill="none" stroke="#000000" x1="4369.428" y1="239.73" x2="4369.428" y2="1175.73"/>
	<g>
		<path fill="none" stroke="#000000" d="M3282.511,236.906h0.009v-74.158c0-7.457-6.044-13.5-13.5-13.5h-494.391l-179.278,3.598
			V234.1l179.278,2.807l3.342,0.148l-0.345,2.676h-181.764v936h181.763"/>
		<line fill="none" stroke="#000000" stroke-dasharray="4,3" x1="2779.419" y1="151.268" x2="2779.419" y2="234.693"/>
	</g>
	<g>
		<path fill="none" stroke="#000000" d="M3282.511,1175.51h0.009v74.158c0,7.457-6.044,13.5-13.5,13.5h-494.391l-179.278-3.598
			v-79.254l179.278-2.807l2.996-0.057v-1.723"/>
		<line fill="none" stroke="#000000" stroke-dasharray="4,3" x1="2779.419" y1="1261.148" x2="2779.419" y2="1177.723"/>
	</g>
	<polyline fill="#FFFFFF" stroke="#000000" points="3574.541,238.788 3574.541,-49.338 3628.267,-193.125 4016.266,-193.125 
		4074.939,-49.338 4074.939,238.788 	"/>
	<path fill="none" stroke="#000000" d="M3574.541,239.73V-21.792c0,0-165.212,0-180.149,0s-24.136,11.336-24.136,22.668
		c0,11.332,8.803,22.665,24.136,22.665s35.864,0.001,35.864,0.001s2.377-0.133,2.377,2.395s-2.385,2.48-2.385,2.48h-71.522
		c0,26.958-24.919,49.333-72.126,49.333V239.73"/>
	<path fill="none" stroke="#000000" d="M3456.922,77.539h-99.256v144.002h18.727v-90.136l80.666-47.198c0,0,3.5-1.516,3.229-4.183
		C3460.015,77.357,3456.922,77.539,3456.922,77.539z"/>
	<path fill="none" stroke="#000000" d="M4217.998,77.539h99.256v144.002h-18.727v-90.136l-80.666-47.198c0,0-3.5-1.516-3.229-4.183
		S4217.998,77.539,4217.998,77.539z"/>
	<path fill="none" stroke="#000000" d="M4312.59-21.792c0,0-114.898,0-129.836,0s-24.135,11.336-24.135,22.668
		c0,11.332,8.803,22.665,24.135,22.665c15.334,0,35.865,0.001,35.865,0.001s2.377-0.133,2.377,2.395s-2.385,2.48-2.385,2.48
		h-143.648V77.75V239.73h287.941l-0.338-152.329c-26.959,0-49.334-24.919-49.334-72.126L4312.59-21.792z"/>
	<line fill="#FFFFFF" stroke="#000000" stroke-dasharray="4,3" x1="4043.268" y1="-121.125" x2="3608.268" y2="-121.125"/>
	<line fill="#FFFFFF" stroke="#000000" stroke-dasharray="4,3" x1="3579.268" y1="-49.251" x2="4072.266" y2="-49.251"/>
	<path fill="#FFFFFF" stroke="#000000" d="M3866.001-38.003c0,22.368-18.132,40.5-40.5,40.5s-40.5-18.132-40.5-40.5V-60.5
		c0-22.368,18.132-40.5,40.5-40.5s40.5,18.132,40.5,40.5V-38.003z"/>
	<path fill="#FFFFFF" stroke="#000000" d="M3068.009,228.582c0-22.367-18.132-40.5-40.5-40.5s-40.5,18.133-40.5,40.5v9.064h80.723
		L3068.009,228.582z"/>
	<path fill="#FFFFFF" stroke="#000000" d="M3068.009,1186.014c0,22.367-18.132,40.5-40.5,40.5s-40.5-18.133-40.5-40.5v-9.064h80.723
		L3068.009,1186.014z"/>
	<g>
		<polyline fill="#FFFFFF" stroke="#000000" points="3574.541,1176.961 3574.541,1465.088 3628.267,1608.875 4016.266,1608.875 
			4074.939,1465.088 4074.939,1176.961 		"/>
		<path fill="none" stroke="#000000" d="M3574.541,1176.02v261.521c0,0-165.212,0-180.149,0s-24.136-11.336-24.136-22.668
			s8.803-22.664,24.136-22.664s35.864-0.002,35.864-0.002s2.377,0.135,2.377-2.395c0-2.527-2.385-2.479-2.385-2.479h-71.522
			c0-26.959-24.919-49.334-72.126-49.334v-161.98"/>
		<path fill="none" stroke="#000000" d="M3456.922,1338.211h-99.256v-144.002h18.727v90.135l80.666,47.197
			c0,0,3.5,1.518,3.229,4.184C3460.015,1338.393,3456.922,1338.211,3456.922,1338.211z"/>
		<path fill="none" stroke="#000000" d="M4217.998,1338.211h99.256v-144.002h-18.727v90.135l-80.666,47.197
			c0,0-3.5,1.518-3.229,4.184C4214.904,1338.393,4217.998,1338.211,4217.998,1338.211z"/>
		<path fill="none" stroke="#000000" d="M4312.59,1437.541c0,0-114.898,0-129.836,0s-24.135-11.336-24.135-22.668
			s8.803-22.664,24.135-22.664c15.334,0,35.865-0.002,35.865-0.002s2.377,0.135,2.377-2.395c0-2.527-2.385-2.479-2.385-2.479
			h-143.648V1338v-161.98h287.941l-0.338,152.328c-26.959,0-49.334,24.918-49.334,72.125L4312.59,1437.541z"/>
		<line fill="#FFFFFF" stroke="#000000" stroke-dasharray="4,3" x1="4043.268" y1="1536.875" x2="3608.268" y2="1536.875"/>
		<line fill="#FFFFFF" stroke="#000000" stroke-dasharray="4,3" x1="3579.268" y1="1465" x2="4072.266" y2="1465"/>
		<path fill="#FFFFFF" stroke="#000000" d="M3866.001,1453.752c0-22.367-18.132-40.5-40.5-40.5s-40.5,18.133-40.5,40.5v22.496
			c0,22.369,18.132,40.5,40.5,40.5s40.5-18.131,40.5-40.5V1453.752z"/>
	</g>
	<line fill="none" stroke="#000000" stroke-dasharray="4,3" x1="4362.504" y1="242.2" x2="4362.504" y2="1176.02"/>
	<line fill="none" stroke="#000000" stroke-dasharray="4,3" x1="2686.377" y1="239.12" x2="2686.377" y2="1173.674"/>
	<line fill="none" stroke="#000000" stroke-dasharray="4,3" x1="2778.135" y1="245.791" x2="2778.135" y2="1166.783"/>
	<line fill="#FFFFFF" stroke="#000000" stroke-dasharray="4,3" x1="4074.963" y1="239.73" x2="4074.963" y2="1176.02"/>
	<line fill="none" stroke="#000000" stroke-dasharray="4,3" x1="3574.541" y1="239.73" x2="3574.541" y2="1176.02"/>
	<line fill="#FFFFFF" stroke="#000000" stroke-dasharray="4,3" x1="2779.419" y1="1175.715" x2="4069.176" y2="1175.715"/>
	<line fill="#FFFFFF" stroke="#000000" stroke-dasharray="4,3" x1="3577.63" y1="239.832" x2="4069.176" y2="239.832"/>
	<polyline fill="#FFFFFF" stroke="#000000" points="2595.351,-239.311 2595.351,-193.125 2541.244,-193.125 	"/>
	<polyline fill="#FFFFFF" stroke="#000000" points="2595.351,1651.186 2595.351,1605 2541.244,1605 	"/>
	<polyline fill="none" stroke="#000000" points="4369.428,-229.151 4369.428,-193.125 4413.548,-193.125 	"/>
	<polyline fill="none" stroke="#000000" points="4406.464,1608.875 4369.428,1608.875 4369.428,1638.263 	"/>
	<polyline fill="#FFFFFF" stroke="#000000" stroke-width="0.5" points="2764.633,2166.827 2723.426,2166.827 2723.426,2120.996 	"/>
	<polyline fill="#FFFFFF" stroke="#000000" stroke-width="0.5" points="2723.426,3258.11 2723.426,3217.693 2764.633,3217.693 	"/>
	<polyline fill="#FFFFFF" stroke="#000000" stroke-width="0.5" points="159.571,2120.996 159.571,2166.827 115.368,2166.827 	"/>
	<polyline fill="#FFFFFF" stroke="#000000" stroke-width="0.5" points="159.571,3258.11 159.571,3217.693 115.368,3217.693 	"/>
	<g>
		<polyline fill="#FFFFFF" stroke="#000000" stroke-width="0.5" points="2667.021,3034.146 2721.598,3023.592 2721.598,2356.8 
			2667.021,2350.146 		"/>
		<polyline fill="#FFFFFF" stroke="#000000" stroke-width="0.5" points="706.742,3034.146 157.744,3034.146 157.744,2350.146 
			706.742,2350.146 706.799,2350.146 1264.799,2350.146 1264.799,3034.146 706.799,3034.146 		"/>
		
			<rect x="1407.77" y="2350.146" fill="#FFFFFF" stroke="#000000" stroke-width="0.5" stroke-dasharray="4,3" width="558" height="684"/>
		<polyline fill="#FFFFFF" stroke="#000000" stroke-width="0.5" stroke-dasharray="4,3" points="1407.77,2222.146 1965.77,2222.146 
			1965.77,2350.147 1407.77,2350.147 		"/>
		<path fill="#FFFFFF" stroke="#000000" stroke-width="0.5" d="M1407.77,2222.147v-18.933c0-20.625,16.576-36.5,37.701-36.5h484.248
			c17.953,0,36.051,16.803,36.051,36.305v19.128"/>
		<line fill="#FFFFFF" stroke="#000000" stroke-width="0.5" x1="1407.588" y1="3034.146" x2="1407.588" y2="3162.146"/>
		<line fill="#FFFFFF" stroke="#000000" stroke-width="0.5" x1="1965.588" y1="3162.146" x2="1965.588" y2="3034.146"/>
		<path fill="#FFFFFF" stroke="#000000" stroke-width="0.5" d="M1965.588,3162.183v19.129c0,19.502-18.096,36.305-36.051,36.305
			h-484.248c-21.125,0-37.701-15.875-37.701-36.5v-18.934"/>
		
			<rect x="1263.695" y="2350.146" fill="#FFFFFF" stroke="#000000" stroke-width="0.5" stroke-dasharray="4,3" width="143.893" height="684"/>
		<polyline fill="#FFFFFF" stroke="#000000" stroke-width="0.5" points="2666.637,2350.146 2108.637,2350.146 2108.637,3034.146 
			2666.637,3034.146 		"/>
		
			<rect x="1965.848" y="2350.146" fill="#FFFFFF" stroke="#000000" stroke-width="0.5" stroke-dasharray="4,3" width="143.893" height="684"/>
		<polyline fill="#FFFFFF" stroke="#000000" stroke-width="0.5" points="1265.822,2350.146 1271.408,2241.955 1382.713,2241.955 
			1391.408,2319.346 1404.844,2325.434 1407.438,2350.146 		"/>
		<polyline fill="#FFFFFF" stroke="#000000" stroke-width="0.5" points="2108.391,2350.146 2102.805,2241.955 1991.5,2241.955 
			1982.805,2319.346 1969.369,2325.434 1966.773,2350.146 		"/>
		<polyline fill="#FFFFFF" stroke="#000000" stroke-width="0.5" points="1265.822,3034.23 1271.408,3142.422 1382.713,3142.422 
			1391.408,3065.031 1404.844,3058.943 1407.438,3034.23 		"/>
		<polyline fill="#FFFFFF" stroke="#000000" stroke-width="0.5" points="2108.391,3034.23 2102.805,3142.422 1991.5,3142.422 
			1982.805,3065.031 1969.369,3058.943 1966.773,3034.23 		"/>
	</g>
	
		<line fill="#FFFFFF" stroke="#000000" stroke-width="0.5" stroke-dasharray="4,3" x1="706.742" y1="2351.669" x2="706.742" y2="3034.146"/>
	
		<line fill="#FFFFFF" stroke="#000000" stroke-width="0.5" stroke-dasharray="4,3" x1="2666.637" y1="2355.52" x2="2666.637" y2="3031.615"/>
	<line fill="#FFFFFF" stroke="#000000" stroke-width="0.5" x1="1965.77" y1="2350.148" x2="1965.77" y2="2222.147"/>
	<line fill="#FFFFFF" stroke="#000000" stroke-width="0.5" x1="1965.77" y1="2222.147" x2="1965.77" y2="2350.148"/>
	
		<line fill="#FFFFFF" stroke="#000000" stroke-width="0.5" stroke-dasharray="4,3" x1="1408.074" y1="3162.18" x2="1965.662" y2="3162.18"/>
	<line fill="#FFFFFF" stroke="#000000" stroke-width="0.5" x1="1407.77" y1="2222.147" x2="1407.77" y2="2350.146"/>
</g>
</svg>
